<svg width="347" height="141" viewBox="0 0 347 141" fill="none" xmlns="http://www.w3.org/2000/svg">
<rect x="4.24268" y="3" width="340.757" height="135.327" rx="28" fill="url(#paint0_radial_614_3407)" stroke="url(#paint1_linear_614_3407)" stroke-width="4"/>
<rect x="195" y="97.9695" width="122.972" height="24.4597" fill="url(#paint2_linear_614_3407)"/>
<path d="M195 98H318L291.876 60H223.301L195 98Z" fill="url(#paint3_linear_614_3407)"/>
<path d="M197.044 97.5405L316.493 97.5405" stroke="url(#paint4_linear_614_3407)" stroke-width="3"/>
<path d="M21.8494 1C12.5437 1 5 8.6934 5 18.1837V26.8529H5.06132C5.58762 22.2336 9.43712 18.6481 14.1078 18.6481H51.4121C60.4379 18.6481 68.763 13.783 73.1932 5.91925L75.9647 1H21.8494Z" fill="url(#paint5_linear_614_3407)"/>
<path d="M2 26.8529L2.06132 31.5C2.06132 22.5 6.43712 18.6481 11.1078 18.6481H48.4121C57.4379 18.6481 65.763 13.783 70.1932 5.91925L72.9647 1" stroke="url(#paint6_linear_614_3407)" stroke-width="3"/>
<path d="M31.5444 96.6936H162.234" stroke="white" stroke-width="10" stroke-linecap="round"/>
<path d="M31.5444 96.6936H120.292" stroke="url(#paint7_linear_614_3407)" stroke-width="10" stroke-linecap="round"/>
<path d="M29.408 52.328H52.732V55.044H29.408V52.328ZM30.416 72.992H51.864V75.736H30.416V72.992ZM35.232 56.248H46.656V58.6H35.232V56.248ZM35.232 59.832H46.656V62.184H35.232V59.832ZM27.896 63.444H54.104V66.188H27.896V63.444ZM34.28 68.512H47.776V71.172H34.28V68.512ZM33.272 50.2H36.632V64.928H33.272V50.2ZM45.452 50.228H48.896V64.956H45.452V50.228ZM39.236 66.748H42.652V74.588H39.236V66.748ZM34.98 64.228L37.808 65.264C37.2107 66.2533 36.4827 67.196 35.624 68.092C34.784 68.9693 33.8693 69.772 32.88 70.5C31.8907 71.2093 30.864 71.7973 29.8 72.264C29.632 72.0027 29.4267 71.7133 29.184 71.396C28.9413 71.0787 28.68 70.7707 28.4 70.472C28.1387 70.1547 27.8867 69.9027 27.644 69.716C28.6333 69.3427 29.5947 68.876 30.528 68.316C31.4613 67.756 32.3107 67.1213 33.076 66.412C33.86 65.7027 34.4947 64.9747 34.98 64.228ZM47.16 64.228C47.664 64.9373 48.2893 65.628 49.036 66.3C49.8013 66.9533 50.6413 67.5507 51.556 68.092C52.4893 68.6333 53.4413 69.0813 54.412 69.436C54.1693 69.6413 53.908 69.9027 53.628 70.22C53.348 70.5187 53.0773 70.8267 52.816 71.144C52.5733 71.4613 52.368 71.7507 52.2 72.012C51.192 71.564 50.212 70.9853 49.26 70.276C48.308 69.5667 47.4213 68.7827 46.6 67.924C45.7787 67.0467 45.0787 66.1507 44.5 65.236L47.16 64.228ZM56.204 51.516H65.892V54.568H56.204V51.516ZM59.144 60.196H65.332V72.936H59.144V70.052H62.532V63.08H59.144V60.196ZM58.92 53.14L62 53.588C61.7573 55.5667 61.4213 57.5173 60.992 59.44C60.5813 61.344 60.068 63.136 59.452 64.816C58.836 66.496 58.08 67.9707 57.184 69.24C57.0907 68.9787 56.9413 68.652 56.736 68.26C56.5307 67.8493 56.3067 67.448 56.064 67.056C55.8213 66.6453 55.6067 66.3187 55.42 66.076C56.1107 65.0493 56.68 63.8547 57.128 62.492C57.576 61.1107 57.94 59.6267 58.22 58.04C58.5187 56.4347 58.752 54.8013 58.92 53.14ZM57.8 60.196H60.516V75.008H57.8V60.196ZM66.06 52.944H73.396V55.492H66.06V52.944ZM65.92 62.744H80.004V65.46H65.92V62.744ZM73.648 67.812H80.06V70.472H73.648V67.812ZM68.636 50.2H71.352V62.184H68.636V50.2ZM68.44 54.484L70.316 55.548C70.0547 56.2947 69.7093 57.06 69.28 57.844C68.8693 58.628 68.412 59.3747 67.908 60.084C67.4227 60.7933 66.9093 61.4 66.368 61.904C66.2373 61.5867 66.032 61.204 65.752 60.756C65.472 60.2893 65.2107 59.9253 64.968 59.664C65.4347 59.2907 65.8827 58.824 66.312 58.264C66.76 57.704 67.1613 57.0973 67.516 56.444C67.8893 55.772 68.1973 55.1187 68.44 54.484ZM79.08 54.512C79.304 55.1653 79.5933 55.828 79.948 56.5C80.3027 57.172 80.704 57.788 81.152 58.348C81.6 58.908 82.0573 59.3747 82.524 59.748C82.2627 59.9533 81.964 60.2427 81.628 60.616C81.292 60.9893 81.012 61.3347 80.788 61.652C80.3027 61.1667 79.836 60.5693 79.388 59.86C78.9587 59.132 78.576 58.3573 78.24 57.536C77.904 56.696 77.624 55.8653 77.4 55.044L79.08 54.512ZM71.324 55.744C71.436 55.8187 71.6133 55.9493 71.856 56.136C72.0987 56.304 72.3507 56.5 72.612 56.724C72.892 56.9293 73.144 57.1253 73.368 57.312C73.592 57.48 73.7507 57.6107 73.844 57.704L72.36 59.58C72.2107 59.3373 71.9867 59.0293 71.688 58.656C71.3893 58.2827 71.0813 57.9187 70.764 57.564C70.4653 57.2093 70.2133 56.9293 70.008 56.724L71.324 55.744ZM73.816 52.944H82.048V55.492H73.816V52.944ZM76.196 50.2H78.968V62.184H76.196V50.2ZM76.196 54.484L78.016 55.492C77.736 56.2573 77.372 57.0413 76.924 57.844C76.4947 58.628 76.0187 59.3653 75.496 60.056C74.9733 60.728 74.4227 61.3067 73.844 61.792C73.732 61.4747 73.5453 61.1013 73.284 60.672C73.0227 60.2427 72.78 59.9067 72.556 59.664C73.06 59.3093 73.536 58.8613 73.984 58.32C74.4507 57.76 74.88 57.1533 75.272 56.5C75.664 55.828 75.972 55.156 76.196 54.484ZM79.108 62.744H79.556L80.032 62.604L82.188 63.276C81.9453 64.0413 81.6747 64.8253 81.376 65.628C81.0773 66.4307 80.788 67.1213 80.508 67.7L78.016 66.86C78.184 66.356 78.3707 65.7587 78.576 65.068C78.8 64.3773 78.9773 63.724 79.108 63.108V62.744ZM70.008 68.568C70.4 69.9307 70.932 70.9573 71.604 71.648C72.276 72.32 73.0693 72.768 73.984 72.992C74.9173 73.216 75.9347 73.3373 77.036 73.356C77.204 73.356 77.456 73.356 77.792 73.356C78.1467 73.356 78.5387 73.356 78.968 73.356C79.416 73.3373 79.864 73.328 80.312 73.328C80.76 73.328 81.18 73.328 81.572 73.328C81.964 73.328 82.272 73.328 82.496 73.328C82.3653 73.5333 82.2347 73.804 82.104 74.14C81.992 74.476 81.8893 74.8213 81.796 75.176C81.7213 75.5493 81.656 75.8667 81.6 76.128H80.452H76.84C75.3467 76.128 74.0213 75.9507 72.864 75.596C71.7067 75.2413 70.708 74.5693 69.868 73.58C69.0467 72.5907 68.3653 71.1533 67.824 69.268L70.008 68.568ZM67.628 66.188H70.596C70.484 67.588 70.288 68.932 70.008 70.22C69.7467 71.508 69.308 72.6933 68.692 73.776C68.076 74.84 67.1893 75.764 66.032 76.548C65.8453 76.1933 65.5653 75.792 65.192 75.344C64.8187 74.9147 64.464 74.5787 64.128 74.336C65.0613 73.72 65.7613 72.9827 66.228 72.124C66.7133 71.2653 67.0493 70.332 67.236 69.324C67.4227 68.2973 67.5533 67.252 67.628 66.188ZM72.332 63.584H75.412V74.7L72.332 73.356V63.584ZM90.056 60.42V63.948H103.888V60.42H90.056ZM87.256 58.32H106.856V65.992H87.256V58.32ZM92.044 55.156H101.956V57.34H92.044V55.156ZM95.488 59.02H98.204V64.928H95.488V59.02ZM96.832 52.804C96.0107 53.6067 94.984 54.4187 93.752 55.24C92.52 56.0613 91.1853 56.8267 89.748 57.536C88.3107 58.2267 86.8547 58.8333 85.38 59.356C85.1933 58.9827 84.932 58.5347 84.596 58.012C84.26 57.4893 83.9333 57.06 83.616 56.724C85.1653 56.2573 86.668 55.6787 88.124 54.988C89.5987 54.2973 90.9427 53.532 92.156 52.692C93.3693 51.852 94.3587 51.0213 95.124 50.2H98.288C99.3707 51.1893 100.565 52.0947 101.872 52.916C103.197 53.7373 104.579 54.4467 106.016 55.044C107.472 55.6227 108.919 56.0987 110.356 56.472C110.001 56.8453 109.656 57.2933 109.32 57.816C108.984 58.3387 108.685 58.8147 108.424 59.244C107.435 58.908 106.408 58.5067 105.344 58.04C104.28 57.5733 103.225 57.06 102.18 56.5C101.135 55.9213 100.155 55.324 99.24 54.708C98.3253 54.0733 97.5227 53.4387 96.832 52.804ZM91.036 61.008L93.332 60.392C93.5933 60.8587 93.8267 61.372 94.032 61.932C94.2373 62.492 94.3773 62.9773 94.452 63.388L92.016 64.116C91.96 63.7053 91.8387 63.2107 91.652 62.632C91.4653 62.0347 91.26 61.4933 91.036 61.008ZM100.276 60.28L103.076 60.952C102.759 61.5493 102.46 62.128 102.18 62.688C101.919 63.248 101.667 63.724 101.424 64.116L99.156 63.472C99.3427 63.024 99.548 62.492 99.772 61.876C100.015 61.26 100.183 60.728 100.276 60.28ZM88.796 66.916H105.372V76.408H101.9V69.1H92.1V76.52H88.796V66.916ZM90.672 70.22H103.328V72.404H90.672V70.22ZM90.7 73.58H103.328V75.764H90.7V73.58ZM119.372 53.7V55.52H130.74V53.7H119.372ZM115.984 51.096H134.296V58.124H115.984V51.096ZM118.056 64.788V65.992H131.804V64.788H118.056ZM118.056 68.12V69.324H131.804V68.12H118.056ZM118.056 61.484V62.66H131.804V61.484H118.056ZM114.724 59.188H135.304V71.62H114.724V59.188ZM120.156 71.032L123.124 73.132C122.377 73.58 121.5 74.0187 120.492 74.448C119.503 74.8773 118.476 75.2693 117.412 75.624C116.367 75.9973 115.368 76.296 114.416 76.52C114.099 76.1653 113.688 75.7547 113.184 75.288C112.699 74.8213 112.26 74.4293 111.868 74.112C112.857 73.888 113.875 73.608 114.92 73.272C115.965 72.936 116.955 72.572 117.888 72.18C118.821 71.788 119.577 71.4053 120.156 71.032ZM126.288 73.3L129.256 71.2C130.245 71.4427 131.291 71.7507 132.392 72.124C133.493 72.4787 134.557 72.8427 135.584 73.216C136.629 73.5707 137.535 73.8973 138.3 74.196L135.332 76.576C134.604 76.24 133.717 75.8667 132.672 75.456C131.645 75.064 130.572 74.6813 129.452 74.308C128.351 73.9347 127.296 73.5987 126.288 73.3Z" fill="#32303D"/>
<path d="M231.497 70L234.878 49.6364H239.183L236.399 66.4503H245.129L244.533 70H231.497ZM252.256 49.6364L254.623 65.108H254.811L262.299 49.6364H267.071L256.671 70H251.123L247.473 49.6364H252.256ZM273.937 70.4474C272.227 70.4474 270.825 70.0298 269.731 69.1946C268.637 68.3527 267.892 67.1397 267.494 65.5554C267.103 63.9711 267.093 62.0653 267.464 59.8381C267.842 57.6174 268.488 55.7249 269.403 54.1605C270.324 52.5961 271.465 51.4062 272.824 50.5909C274.189 49.7689 275.724 49.358 277.427 49.358C279.124 49.358 280.52 49.7689 281.613 50.5909C282.707 51.4129 283.456 52.6027 283.86 54.1605C284.271 55.7183 284.291 57.6108 283.92 59.8381C283.549 62.072 282.903 63.9811 281.981 65.5653C281.06 67.143 279.916 68.3527 278.551 69.1946C277.185 70.0298 275.647 70.4474 273.937 70.4474ZM274.534 66.8778C275.707 66.8778 276.734 66.2912 277.616 65.1179C278.498 63.9446 279.134 62.1847 279.525 59.8381C279.784 58.3002 279.84 57.0175 279.694 55.9901C279.555 54.956 279.24 54.1804 278.75 53.6634C278.259 53.1463 277.626 52.8878 276.85 52.8878C275.69 52.8878 274.663 53.4711 273.768 54.6378C272.88 55.7978 272.243 57.5312 271.859 59.8381C271.6 61.4025 271.544 62.7083 271.69 63.7557C271.836 64.7964 272.154 65.5786 272.645 66.1023C273.135 66.6193 273.765 66.8778 274.534 66.8778Z" fill="#32303D"/>
<defs>
<radialGradient id="paint0_radial_614_3407" cx="0" cy="0" r="1" gradientUnits="userSpaceOnUse" gradientTransform="translate(7.27564 8.3623) rotate(20.5363) scale(362.779 538.702)">
<stop stop-color="white"/>
<stop offset="0.555" stop-color="#DBE7FF"/>
<stop offset="1" stop-color="#F1F6FF"/>
</radialGradient>
<linearGradient id="paint1_linear_614_3407" x1="7.69504" y1="7.24869" x2="280.194" y2="211.703" gradientUnits="userSpaceOnUse">
<stop stop-color="#A2C4FF"/>
<stop offset="0.618327" stop-color="#366ABA"/>
<stop offset="1" stop-color="#A2C4FF"/>
</linearGradient>
<linearGradient id="paint2_linear_614_3407" x1="195" y1="122.429" x2="271.675" y2="51.7956" gradientUnits="userSpaceOnUse">
<stop offset="0.0445169" stop-color="#E4980B"/>
<stop offset="1" stop-color="#D27400"/>
</linearGradient>
<linearGradient id="paint3_linear_614_3407" x1="256.609" y1="100.844" x2="256.609" y2="57.0419" gradientUnits="userSpaceOnUse">
<stop offset="0.0445169" stop-color="#F67B00"/>
<stop offset="1" stop-color="#F8B33A"/>
</linearGradient>
<linearGradient id="paint4_linear_614_3407" x1="315.069" y1="97.5405" x2="197.044" y2="97.5405" gradientUnits="userSpaceOnUse">
<stop stop-color="white" stop-opacity="0"/>
<stop offset="0.515" stop-color="white"/>
<stop offset="1" stop-color="white" stop-opacity="0"/>
</linearGradient>
<linearGradient id="paint5_linear_614_3407" x1="8.18754" y1="11.8366" x2="96.8315" y2="3.93722" gradientUnits="userSpaceOnUse">
<stop stop-color="#366ABA"/>
<stop offset="0.435491" stop-color="#C3D7FF"/>
<stop offset="0.866321" stop-color="#C3D7FF"/>
</linearGradient>
<linearGradient id="paint6_linear_614_3407" x1="69.9449" y1="5.25722" x2="8.44601" y2="21.1082" gradientUnits="userSpaceOnUse">
<stop stop-color="#C3D7FF" stop-opacity="0"/>
<stop offset="0.500621" stop-color="#B6CBF5" stop-opacity="0.776471"/>
<stop offset="1" stop-color="#C3D7FF" stop-opacity="0"/>
</linearGradient>
<linearGradient id="paint7_linear_614_3407" x1="163.072" y1="97.6824" x2="31.5444" y2="97.6822" gradientUnits="userSpaceOnUse">
<stop stop-color="#D47C00"/>
<stop offset="0.570213" stop-color="#EDB200"/>
<stop offset="1" stop-color="#FB9200"/>
</linearGradient>
</defs>
</svg>
