<svg width="24" height="26" viewBox="0 0 24 26" fill="none" xmlns="http://www.w3.org/2000/svg">
<path fill-rule="evenodd" clip-rule="evenodd" d="M3.76633 2.58217C4.04959 0.828694 5.66994 0 7.20001 0C8.94547 0 10.3024 1.18385 11.2007 2.30734C11.4946 2.67493 11.7617 3.06315 12 3.45138C12.2383 3.06315 12.5054 2.67493 12.7993 2.30734C13.6978 1.18385 15.0546 0 16.8 0C18.3301 0 19.9505 0.828694 20.2337 2.58217C20.3641 3.38989 20.1706 4.1912 19.7197 4.95238H20.9183C21.2212 4.95234 21.5161 4.95231 21.7658 4.97337C22.0402 4.99648 22.3639 5.05104 22.6896 5.22227C23.1412 5.45967 23.5084 5.83847 23.7384 6.30441C23.9044 6.64045 23.9573 6.97441 23.9797 7.25743C24.0001 7.51514 24 7.81945 24 8.13191V9.20143C24 9.51388 24.0001 9.8182 23.9797 10.0759C23.9573 10.3589 23.9044 10.6929 23.7384 11.0289C23.5274 11.4562 23.201 11.8103 22.8 12.0493V20.8478C22.8 21.5004 22.8 22.0635 22.7633 22.5271C22.7245 23.0167 22.639 23.5035 22.4076 23.972C22.0625 24.6709 21.5118 25.2391 20.8344 25.5951C20.3803 25.8338 19.9085 25.9221 19.434 25.9621C18.9846 26 18.4388 26 17.8063 26H6.19373C5.56116 26 5.01545 26 4.56598 25.9621C4.09156 25.9221 3.61969 25.8338 3.16564 25.5951C2.48826 25.2391 1.93753 24.6709 1.59239 23.972C1.36103 23.5035 1.27546 23.0167 1.23669 22.5271C1.19997 22.0635 1.19999 21.5004 1.20001 20.8477V12.0493C0.798975 11.8103 0.472635 11.4562 0.261591 11.0289C0.0956309 10.6929 0.0427589 10.3589 0.0203429 10.0759C-6.91071e-05 9.81818 -3.29783e-05 9.51387 3.02172e-06 9.2014C3.02172e-06 9.18825 1.5038e-05 9.17508 1.5038e-05 9.1619V8.17143C1.5038e-05 8.15826 3.02172e-06 8.14508 3.02172e-06 8.13193C-3.29783e-05 7.81946 -6.91071e-05 7.51515 0.0203429 7.25743C0.0427589 6.97441 0.0956309 6.64045 0.261591 6.30441C0.491691 5.83847 0.858843 5.45967 1.31043 5.22227C1.63614 5.05104 1.95982 4.99648 2.23414 4.97337C2.48392 4.95231 2.77887 4.95234 3.08173 4.95238H3.12001H4.28027C3.82947 4.1912 3.63586 3.38989 3.76633 2.58217ZM7.18139 7.42857C7.19308 7.42875 7.20475 7.42875 7.21642 7.42857H8.03713C7.97915 7.49314 7.92187 7.55927 7.86539 7.62699C6.72207 8.9979 6.00001 10.8995 6.00001 13.619C6.00001 14.3028 6.53727 14.8571 7.20001 14.8571C7.86275 14.8571 8.40001 14.3028 8.40001 13.619C8.40001 11.3863 8.97795 10.0894 9.6846 9.24206C10.3098 8.49249 11.1095 7.99978 12 7.5567C12.8905 7.99978 13.6903 8.49249 14.3154 9.24206C15.0221 10.0894 15.6 11.3863 15.6 13.619C15.6 14.3028 16.1372 14.8571 16.8 14.8571C17.4628 14.8571 18 14.3028 18 13.619C18 10.8995 17.278 8.9979 16.1346 7.62699C16.0781 7.55927 16.0208 7.49314 15.9629 7.42857H16.7836C16.7953 7.42875 16.807 7.42875 16.8186 7.42857H20.88C21.2358 7.42857 21.4306 7.42954 21.5705 7.44132C21.576 7.44179 21.5813 7.44227 21.5862 7.44275C21.5867 7.44789 21.5872 7.45332 21.5876 7.45907C21.599 7.60342 21.6 7.8043 21.6 8.17143V9.1619C21.6 9.52904 21.599 9.72992 21.5876 9.87427C21.5872 9.88001 21.5867 9.88545 21.5863 9.89057C21.5813 9.89106 21.576 9.89154 21.5705 9.89201C21.4306 9.9038 21.2358 9.90476 20.88 9.90476H20.4C19.7372 9.90476 19.2 10.4591 19.2 11.1429C19.2 11.8267 19.7372 12.381 20.4 12.381V20.8C20.4 21.5139 20.399 21.9747 20.3713 22.3256C20.3447 22.6618 20.2994 22.7865 20.2692 22.8478C20.1541 23.0808 19.9706 23.2701 19.7448 23.3889C19.6855 23.4201 19.5646 23.4667 19.2386 23.4942C18.8986 23.5228 18.4519 23.5238 17.76 23.5238H13.2V11.1429C13.2 10.4591 12.6628 9.90476 12 9.90476C11.3372 9.90476 10.8 10.4591 10.8 11.1429V23.5238H6.24001C5.54814 23.5238 5.10142 23.5228 4.76141 23.4942C4.43542 23.4667 4.31455 23.4201 4.25521 23.3889C4.02942 23.2701 3.84585 23.0808 3.7308 22.8478C3.70058 22.7865 3.65536 22.6618 3.62872 22.3256C3.60094 21.9747 3.60001 21.5139 3.60001 20.8V12.381C4.26275 12.381 4.80001 11.8267 4.80001 11.1429C4.80001 10.4591 4.26275 9.90476 3.60001 9.90476H3.12001C2.76418 9.90476 2.56947 9.9038 2.42957 9.89201C2.424 9.89154 2.41872 9.89106 2.41374 9.89059C2.41329 9.88545 2.41283 9.88001 2.41238 9.87427C2.40094 9.72992 2.40002 9.52904 2.40002 9.1619V8.17143C2.40002 7.8043 2.40094 7.60342 2.41238 7.45907C2.41283 7.45332 2.41329 7.44789 2.41374 7.44275C2.41872 7.44228 2.424 7.44179 2.42957 7.44132C2.56947 7.42954 2.76418 7.42857 3.12001 7.42857H7.18139ZM16.4245 4.95238C17.8262 3.90411 17.8942 3.16159 17.8663 2.98926C17.8496 2.88559 17.67 2.47619 16.8 2.47619C16.1455 2.47619 15.4024 2.94313 14.6507 3.88314C14.3806 4.22085 14.136 4.58754 13.9218 4.95238H16.4245ZM10.0782 4.95238H7.57547C6.17374 3.90411 6.10584 3.16159 6.13368 2.98926C6.15042 2.88559 6.33007 2.47619 7.20001 2.47619C7.85454 2.47619 8.59771 2.94313 9.34936 3.88314C9.61944 4.22085 9.864 4.58754 10.0782 4.95238Z" fill="#494965"/>
</svg>
