<svg width="28" height="28" viewBox="0 0 28 28" fill="none" xmlns="http://www.w3.org/2000/svg">
<mask id="mask0_73_1235" style="mask-type:luminance" maskUnits="userSpaceOnUse" x="0" y="0" width="28" height="28">
<path d="M27 1H1V27H27V1Z" fill="white" stroke="white" stroke-width="0.6"/>
</mask>
<g mask="url(#mask0_73_1235)">
<path d="M17.9607 24.3592C14.5855 24.3592 11.7805 21.7229 11.5745 18.3573C11.5573 18.0773 11.7702 17.8366 12.0501 17.8195C12.3297 17.8028 12.5708 18.0153 12.5879 18.2952C12.7612 21.1261 15.121 23.3435 17.9603 23.3435C20.7996 23.3435 23.3429 20.9288 23.3429 17.9608C23.3429 16.5867 22.8254 15.2788 21.8854 14.2775C20.9496 13.2808 19.686 12.6817 18.3267 12.5903C18.0467 12.5717 17.8354 12.3294 17.854 12.0495C17.8727 11.7696 18.1153 11.5578 18.3948 11.5769C20.0112 11.6854 21.5141 12.3976 22.6262 13.5821C23.7436 14.7723 24.3591 16.3273 24.3591 17.9608C24.3591 21.4887 21.4889 24.3592 17.9607 24.3592Z" fill="#494965" stroke="#494965" stroke-width="0.6"/>
<path d="M16.1794 21.7202C15.9729 21.7202 15.7665 21.6547 15.5864 21.5241C15.2257 21.262 15.0817 20.8187 15.2196 20.3948L15.677 18.9918L14.4811 18.1284C14.234 17.9497 14.0816 17.6755 14.0637 17.3762C14.0466 17.0962 14.2599 16.8555 14.5398 16.8388C14.6171 16.8342 14.6917 16.8471 14.7595 16.8742C14.7569 16.8529 14.7553 16.8308 14.7553 16.8087C14.7553 16.5284 14.9827 16.301 15.263 16.301H16.5458L16.9948 14.904C17.1315 14.479 17.5082 14.2044 17.9545 14.2036C18.4009 14.2036 18.778 14.4771 18.9158 14.9017L19.3694 16.301H20.8498C21.2954 16.301 21.6725 16.5748 21.81 16.9987C21.9475 17.4226 21.8031 17.8656 21.4424 18.1272L20.2496 18.9921L20.7066 20.3857C20.8456 20.8096 20.7024 21.2533 20.3418 21.5161C19.9811 21.7789 19.5149 21.7793 19.1543 21.5168L17.9671 20.6542L16.7735 21.5237C16.593 21.6551 16.3862 21.721 16.1794 21.721V21.7202ZM15.0764 17.3053L16.5717 18.3847C16.7507 18.5138 16.8257 18.7438 16.7571 18.9537L16.1912 20.6904L17.6674 19.6148C17.8456 19.485 18.0867 19.485 18.2649 19.6148L19.7351 20.6831L19.1683 18.9563C19.0994 18.7465 19.1741 18.5164 19.3527 18.387L20.8296 17.316H18.9996C18.7795 17.316 18.5845 17.1743 18.5167 16.9648L17.9553 15.2331L17.3989 16.9637C17.3315 17.1735 17.1361 17.316 16.9156 17.316H15.2626C15.1956 17.316 15.132 17.303 15.0734 17.2794C15.0745 17.2878 15.0753 17.2966 15.076 17.3049L15.0764 17.3053Z" fill="#494965" stroke="#494965" stroke-width="0.6"/>
<path d="M17.9608 27C15.6589 27 13.4659 26.1343 11.786 24.5621C10.114 22.9979 9.10512 20.8823 8.9444 18.6059C8.9246 18.326 9.13559 18.0834 9.41514 18.0635C9.69507 18.043 9.93768 18.2547 9.95748 18.5343C10.0999 20.5544 10.9957 22.4316 12.4799 23.8202C13.971 25.2157 15.9175 25.9839 17.9608 25.9839C22.3849 25.9839 25.9843 22.3848 25.9843 17.9603C25.9843 15.917 25.2158 13.9705 23.8207 12.4794C22.4321 10.9952 20.5548 10.0994 18.5348 9.957C18.2548 9.93719 18.0442 9.69459 18.064 9.41466C18.0838 9.13473 18.3268 8.92411 18.6064 8.94392C20.8828 9.10464 22.998 10.1139 24.5626 11.7855C26.1348 13.4655 27.0005 15.6584 27.0005 17.9603C27.0005 20.3746 26.0601 22.6445 24.3531 24.3519C22.6461 26.0593 20.3758 26.9992 17.9616 26.9992L17.9608 27Z" fill="#494965" stroke="#494965" stroke-width="0.6"/>
<path d="M10.0388 16.4372C6.51052 16.4372 3.64038 13.5671 3.64038 10.0388C3.64038 6.51052 6.5109 3.64038 10.0388 3.64038C13.5667 3.64038 16.4372 6.51052 16.4372 10.0388C16.4372 13.5671 13.5671 16.4372 10.0388 16.4372ZM10.0388 4.65613C7.07076 4.65613 4.65613 7.07076 4.65613 10.0388C4.65613 13.0068 7.07076 15.4214 10.0388 15.4214C13.0068 15.4214 15.4214 13.0068 15.4214 10.0388C15.4214 7.07076 13.0068 4.65613 10.0388 4.65613Z" fill="#494965" stroke="#494965" stroke-width="0.6"/>
<path d="M8.25775 13.7985C8.05133 13.7985 7.8449 13.733 7.66476 13.6023C7.3037 13.3403 7.16012 12.897 7.29837 12.4731L7.7554 11.07L6.55951 10.2066C6.19769 9.94534 6.05259 9.50241 6.19008 9.07775C6.32757 8.65309 6.70423 8.37888 7.1506 8.37888H8.62452L9.07355 6.98189C9.21028 6.55685 9.58694 6.28226 10.0333 6.28149H10.0345C10.4801 6.28149 10.8567 6.55533 10.9946 6.97961L11.4482 8.37888H12.9286C13.3742 8.37888 13.7512 8.65271 13.8887 9.07661C14.0262 9.5005 13.8819 9.94344 13.5212 10.2051L12.3284 11.07L12.7854 12.4636C12.9244 12.8875 12.7812 13.3312 12.4205 13.594C12.0599 13.8568 11.5937 13.8568 11.233 13.5947L10.0459 12.7321L8.85227 13.6016C8.67174 13.733 8.46494 13.7989 8.25813 13.7989L8.25775 13.7985ZM7.16964 9.39424L8.65004 10.4629C8.82904 10.592 8.90407 10.8221 8.83551 11.0319L8.26956 12.7686L9.74576 11.6931C9.92362 11.5632 10.1651 11.5632 10.3433 11.6931L11.8134 12.7614L11.2467 11.0346C11.1778 10.8247 11.2524 10.5947 11.4311 10.4652L12.908 9.39424H11.078C10.8579 9.39424 10.6629 9.25256 10.5951 9.04309L10.0337 7.31133L9.47726 9.04195C9.40985 9.2518 9.21447 9.39424 8.99395 9.39424H7.16926H7.16964Z" fill="#494965" stroke="#494965" stroke-width="0.6"/>
<path d="M10.0389 19.0782C7.62464 19.0782 5.35472 18.1378 3.64734 16.4308C1.94034 14.7234 1 12.4535 1 10.0389C1 8.49337 1.39685 6.96766 2.14829 5.62704C2.28539 5.38253 2.59465 5.29493 2.83954 5.43242C3.08405 5.56953 3.17127 5.87878 3.03416 6.12368C2.36766 7.31309 2.01575 8.66704 2.01575 10.0393C2.01575 14.4633 5.61485 18.0628 10.0393 18.0628C14.4637 18.0628 18.0628 14.4637 18.0628 10.0393C18.0628 5.61485 14.4633 2.01575 10.0389 2.01575C8.62743 2.01575 7.23997 2.38708 6.0258 3.08976C5.78319 3.2303 5.47241 3.14727 5.33187 2.90467C5.19134 2.66206 5.27436 2.35128 5.51697 2.21075C6.88539 1.41856 8.44919 1 10.0389 1C12.4531 1 14.7231 1.94034 16.4304 3.64734C18.1378 5.35472 19.0778 7.62464 19.0778 10.0389C19.0778 12.4531 18.1374 14.7231 16.4304 16.4304C14.7231 18.1378 12.4531 19.0778 10.0389 19.0778V19.0782Z" fill="#494965" stroke="#494965" stroke-width="0.6"/>
<path d="M3.96461 4.55691C3.94785 4.55691 3.93109 4.55615 3.91471 4.55425C3.89834 4.55272 3.88158 4.55006 3.8652 4.54701C3.83283 4.54053 3.80084 4.53063 3.77037 4.51806C3.73952 4.50511 3.71019 4.4895 3.68277 4.47122C3.66868 4.46208 3.65535 4.45218 3.6424 4.44151C3.62983 4.43123 3.61726 4.4198 3.60546 4.408C3.59365 4.39657 3.58261 4.384 3.57194 4.37105C3.56128 4.3581 3.55138 4.34477 3.54224 4.33106C3.52395 4.30326 3.50834 4.27393 3.49577 4.24347C3.48282 4.21262 3.4733 4.18062 3.46683 4.14825C3.4634 4.13187 3.46073 4.1155 3.45921 4.09912C3.45769 4.08236 3.45654 4.06561 3.45654 4.04923C3.45654 4.03285 3.45769 4.01571 3.45921 3.99896C3.46073 3.98258 3.4634 3.9662 3.46683 3.94982C3.4733 3.91745 3.48282 3.88546 3.49577 3.85499C3.50834 3.82414 3.52395 3.79482 3.54224 3.76701C3.55138 3.7533 3.56128 3.73997 3.57194 3.72702C3.58261 3.71407 3.59365 3.70189 3.60546 3.69008C3.61726 3.67827 3.62983 3.66685 3.6424 3.65656C3.65535 3.6459 3.66868 3.636 3.68277 3.62686C3.71019 3.60858 3.73952 3.59296 3.77037 3.58001C3.80084 3.56744 3.83283 3.55792 3.8652 3.55107C3.88158 3.54802 3.89834 3.54535 3.91471 3.54383C3.94785 3.5404 3.98136 3.5404 4.0145 3.54383C4.03088 3.54535 4.04763 3.54802 4.06363 3.55107C4.096 3.55792 4.12799 3.56744 4.15884 3.58001C4.18931 3.59296 4.21902 3.60858 4.24644 3.62686C4.26015 3.636 4.27386 3.6459 4.28643 3.65656C4.29938 3.66685 4.31195 3.67827 4.32376 3.69008C4.33518 3.70189 4.34661 3.71407 4.35727 3.72702C4.36755 3.73997 4.37746 3.7533 4.3866 3.76701C4.40488 3.79482 4.42087 3.82414 4.43344 3.85499C4.44601 3.88546 4.45591 3.91745 4.46239 3.94982C4.46582 3.9662 4.4681 3.98258 4.46962 3.99896C4.47153 4.01571 4.47229 4.03247 4.47229 4.04923C4.47229 4.06599 4.47153 4.08236 4.46962 4.09912C4.4681 4.1155 4.46582 4.13187 4.46239 4.14825C4.45591 4.18062 4.44601 4.21262 4.43344 4.24347C4.42087 4.27393 4.40488 4.30326 4.3866 4.33106C4.37746 4.34477 4.36755 4.3581 4.35727 4.37105C4.34661 4.384 4.33518 4.39657 4.32376 4.408C4.31195 4.4198 4.29938 4.43123 4.28643 4.44151C4.27386 4.45218 4.26015 4.46208 4.24644 4.47122C4.21902 4.4895 4.18931 4.50511 4.15884 4.51806C4.12799 4.53063 4.096 4.54053 4.06363 4.54701C4.04763 4.55006 4.03088 4.55272 4.0145 4.55425C3.99774 4.55615 3.98098 4.55691 3.96461 4.55691Z" fill="#494965" stroke="#494965" stroke-width="0.6"/>
</g>
</svg>
