<svg width="191" height="34" viewBox="0 0 191 34" fill="none" xmlns="http://www.w3.org/2000/svg">
<rect y="4" width="43" height="30" fill="#0B214D"/>
<path d="M4 0H191L175 15L191 30H4V0Z" fill="#1E4DAB"/>
<path d="M53.1315 10.228L50.4015 20H48.0915L46.2575 13.042L44.3395 20L42.0435 20.014L39.4115 10.228H41.5115L43.2335 17.816L45.2215 10.228H47.4055L49.2815 17.774L51.0175 10.228H53.1315ZM61.6213 15.954C61.6213 16.234 61.6026 16.486 61.5653 16.71H55.8953C55.942 17.27 56.138 17.7087 56.4833 18.026C56.8286 18.3433 57.2533 18.502 57.7573 18.502C58.4853 18.502 59.0033 18.1893 59.3113 17.564H61.4253C61.2013 18.3107 60.772 18.9267 60.1373 19.412C59.5026 19.888 58.7233 20.126 57.7993 20.126C57.0526 20.126 56.3806 19.9627 55.7833 19.636C55.1953 19.3 54.7333 18.8287 54.3973 18.222C54.0706 17.6153 53.9073 16.9153 53.9073 16.122C53.9073 15.3193 54.0706 14.6147 54.3973 14.008C54.724 13.4013 55.1813 12.9347 55.7693 12.608C56.3573 12.2813 57.034 12.118 57.7993 12.118C58.5366 12.118 59.1946 12.2767 59.7733 12.594C60.3613 12.9113 60.814 13.364 61.1313 13.952C61.458 14.5307 61.6213 15.198 61.6213 15.954ZM59.5913 15.394C59.582 14.89 59.4 14.4887 59.0453 14.19C58.6906 13.882 58.2566 13.728 57.7433 13.728C57.258 13.728 56.8473 13.8773 56.5113 14.176C56.1846 14.4653 55.984 14.8713 55.9093 15.394H59.5913ZM65.0539 18.348H69.4499V20H62.7859V18.488L67.1539 11.88H62.7859V10.228H69.4499V11.74L65.0539 18.348ZM70.6143 16.094C70.6143 15.31 70.7683 14.6147 71.0763 14.008C71.3937 13.4013 71.8183 12.9347 72.3503 12.608C72.8917 12.2813 73.4937 12.118 74.1563 12.118C74.735 12.118 75.239 12.2347 75.6683 12.468C76.107 12.7013 76.457 12.9953 76.7183 13.35V12.244H78.6923V20H76.7183V18.866C76.4663 19.23 76.1163 19.5333 75.6683 19.776C75.2297 20.0093 74.721 20.126 74.1423 20.126C73.489 20.126 72.8917 19.958 72.3503 19.622C71.8183 19.286 71.3937 18.8147 71.0763 18.208C70.7683 17.592 70.6143 16.8873 70.6143 16.094ZM76.7183 16.122C76.7183 15.646 76.625 15.24 76.4383 14.904C76.2517 14.5587 75.9997 14.2973 75.6823 14.12C75.365 13.9333 75.0243 13.84 74.6603 13.84C74.2963 13.84 73.9603 13.9287 73.6523 14.106C73.3443 14.2833 73.0923 14.5447 72.8963 14.89C72.7097 15.226 72.6163 15.6273 72.6163 16.094C72.6163 16.5607 72.7097 16.9713 72.8963 17.326C73.0923 17.6713 73.3443 17.9373 73.6523 18.124C73.9697 18.3107 74.3057 18.404 74.6603 18.404C75.0243 18.404 75.365 18.3153 75.6823 18.138C75.9997 17.9513 76.2517 17.69 76.4383 17.354C76.625 17.0087 76.7183 16.598 76.7183 16.122ZM84.9046 12.132C85.8286 12.132 86.5753 12.426 87.1446 13.014C87.714 13.5927 87.9986 14.4047 87.9986 15.45V20H86.0386V15.716C86.0386 15.1 85.8846 14.6287 85.5766 14.302C85.2686 13.966 84.8486 13.798 84.3166 13.798C83.7753 13.798 83.346 13.966 83.0286 14.302C82.7206 14.6287 82.5666 15.1 82.5666 15.716V20H80.6066V12.244H82.5666V13.21C82.828 12.874 83.1593 12.6127 83.5606 12.426C83.9713 12.23 84.4193 12.132 84.9046 12.132ZM95.5185 13.462H101.804V14.862H95.5185V13.462ZM95.5185 16.22H101.804V17.634H95.5185V16.22ZM95.3365 19.034H102.434V20.546H95.3365V19.034ZM98.0665 11.488H99.6205V19.482H98.0665V11.488ZM98.9625 8.128L100.74 8.492C100.488 9.108 100.222 9.724 99.9425 10.34C99.6625 10.9467 99.4058 11.46 99.1725 11.88L97.7445 11.516C97.9032 11.208 98.0572 10.858 98.2065 10.466C98.3558 10.074 98.4958 9.67733 98.6265 9.276C98.7665 8.86533 98.8785 8.48267 98.9625 8.128ZM95.7565 8.072L97.3665 8.478C97.1425 9.24333 96.8672 9.99933 96.5405 10.746C96.2232 11.4927 95.8685 12.188 95.4765 12.832C95.0845 13.476 94.6645 14.0453 94.2165 14.54C94.1512 14.4187 94.0532 14.2647 93.9225 14.078C93.7918 13.8913 93.6565 13.7047 93.5165 13.518C93.3765 13.322 93.2552 13.168 93.1525 13.056C93.7312 12.468 94.2445 11.7353 94.6925 10.858C95.1405 9.97133 95.4952 9.04267 95.7565 8.072ZM96.4425 10.662H102.168V12.132H96.4425V21.246H94.8185V11.502L95.6445 10.662H96.4425ZM89.1905 15.268C89.7785 15.1467 90.4785 14.988 91.2905 14.792C92.1118 14.5867 92.9378 14.3767 93.7685 14.162L93.9645 15.66C93.2085 15.8747 92.4432 16.094 91.6685 16.318C90.8938 16.5327 90.1845 16.7287 89.5405 16.906L89.1905 15.268ZM89.4705 10.76H93.7965V12.3H89.4705V10.76ZM91.1085 8.114H92.7185V19.37C92.7185 19.7807 92.6765 20.1073 92.5925 20.35C92.5085 20.5927 92.3545 20.7793 92.1305 20.91C91.8972 21.05 91.6078 21.1387 91.2625 21.176C90.9265 21.2227 90.5158 21.246 90.0305 21.246C90.0118 21.022 89.9558 20.7513 89.8625 20.434C89.7692 20.1167 89.6665 19.8413 89.5545 19.608C89.8345 19.6173 90.0958 19.6267 90.3385 19.636C90.5905 19.636 90.7632 19.6313 90.8565 19.622C90.9498 19.622 91.0152 19.6033 91.0525 19.566C91.0898 19.5287 91.1085 19.4587 91.1085 19.356V8.114ZM103.68 8.842H116.14V10.158H103.68V8.842ZM105.136 11.152H116.028V12.286H105.136V11.152ZM107.768 15.884H116.084V16.962H107.768V15.884ZM107.474 17.438H114.768V18.53H107.474V17.438ZM106.62 8.1H108.286V10.886H106.62V8.1ZM111.562 8.1H113.228V10.886H111.562V8.1ZM109.042 10.48H110.624V11.614H109.042V10.48ZM107.6 11.936H109V14.722H107.6V11.936ZM110.652 11.936H112.066V14.722H110.652V11.936ZM104.38 11.152H105.934V14.26C105.934 14.764 105.916 15.3147 105.878 15.912C105.85 16.5093 105.785 17.1207 105.682 17.746C105.589 18.362 105.449 18.9593 105.262 19.538C105.076 20.1167 104.833 20.6487 104.534 21.134C104.432 21.0407 104.296 20.9427 104.128 20.84C103.96 20.7373 103.788 20.6347 103.61 20.532C103.442 20.4293 103.293 20.3547 103.162 20.308C103.442 19.8693 103.662 19.3933 103.82 18.88C103.988 18.3573 104.11 17.8253 104.184 17.284C104.268 16.7427 104.32 16.2153 104.338 15.702C104.366 15.1793 104.38 14.694 104.38 14.246V11.152ZM105.36 12.874H115.454V15.394H105.36V14.47H113.816V13.798H105.36V12.874ZM106.984 15.058L108.524 15.212C108.44 15.6133 108.342 16.0287 108.23 16.458C108.128 16.878 108.025 17.2887 107.922 17.69C107.82 18.082 107.722 18.4273 107.628 18.726L106.102 18.6C106.205 18.2827 106.308 17.9233 106.41 17.522C106.522 17.1207 106.625 16.7053 106.718 16.276C106.821 15.8467 106.91 15.4407 106.984 15.058ZM114.362 17.438H115.916C115.916 17.438 115.912 17.5033 115.902 17.634C115.902 17.7647 115.893 17.872 115.874 17.956C115.837 18.5253 115.79 19.0013 115.734 19.384C115.678 19.7667 115.613 20.07 115.538 20.294C115.473 20.518 115.389 20.6907 115.286 20.812C115.156 20.9427 115.016 21.036 114.866 21.092C114.726 21.148 114.568 21.1853 114.39 21.204C114.241 21.2227 114.04 21.232 113.788 21.232C113.546 21.2413 113.28 21.2413 112.99 21.232C112.981 21.0453 112.944 20.8353 112.878 20.602C112.813 20.378 112.734 20.182 112.64 20.014C112.855 20.0327 113.046 20.042 113.214 20.042C113.382 20.0513 113.513 20.056 113.606 20.056C113.69 20.056 113.76 20.0467 113.816 20.028C113.882 20.0187 113.938 19.9907 113.984 19.944C114.059 19.8507 114.129 19.6313 114.194 19.286C114.26 18.9313 114.316 18.376 114.362 17.62V17.438ZM106.284 18.726L107.516 19.23C107.367 19.6033 107.176 19.972 106.942 20.336C106.718 20.7093 106.438 21.0267 106.102 21.288L104.94 20.532C105.239 20.3173 105.505 20.0467 105.738 19.72C105.981 19.384 106.163 19.0527 106.284 18.726ZM107.894 19.062L109.126 18.908C109.21 19.2253 109.276 19.5753 109.322 19.958C109.378 20.3313 109.406 20.6533 109.406 20.924L108.09 21.12C108.109 20.84 108.095 20.5087 108.048 20.126C108.011 19.7433 107.96 19.3887 107.894 19.062ZM109.672 19.076L110.834 18.74C110.984 19.0013 111.119 19.3 111.24 19.636C111.371 19.972 111.46 20.2613 111.506 20.504L110.274 20.896C110.237 20.6533 110.158 20.3593 110.036 20.014C109.924 19.6687 109.803 19.356 109.672 19.076ZM111.436 18.88L112.5 18.446C112.668 18.6233 112.832 18.8287 112.99 19.062C113.158 19.286 113.284 19.4867 113.368 19.664L112.262 20.182C112.178 19.9953 112.057 19.7807 111.898 19.538C111.749 19.2953 111.595 19.076 111.436 18.88ZM123.014 12.818H130.602V14.484H123.014V12.818ZM125.968 8.17H127.662V21.26H125.968V8.17ZM118.002 12.398H122.524V13.672H118.002V12.398ZM118.086 8.548H122.538V9.808H118.086V8.548ZM118.002 14.316H122.524V15.576H118.002V14.316ZM117.316 10.424H123.07V11.754H117.316V10.424ZM118.772 16.248H122.482V20.518H118.772V19.188H120.998V17.578H118.772V16.248ZM117.96 16.248H119.416V21.064H117.96V16.248ZM137.07 16.164H138.624V18.964H137.07V16.164ZM131.512 19.776H144.308V20.882H131.512V19.776ZM131.568 10.284H144.224V11.194H131.568V10.284ZM131.526 14.442H144.322V15.478H131.526V14.442ZM132.534 13.056H143.37V13.952H132.534V13.056ZM133.052 8.94H142.824V12.58H132.968V11.698H141.116V9.822H133.052V8.94ZM136.958 8.086H138.666V14.946H136.958V8.086ZM134.76 18.012V18.516H141.116V18.012H134.76ZM134.76 16.738V17.228H141.116V16.738H134.76ZM133.122 15.926H142.838V19.328H133.122V15.926Z" fill="white"/>
</svg>
