<svg width="25" height="26" viewBox="0 0 25 26" fill="none" xmlns="http://www.w3.org/2000/svg">
<path d="M21 8.95546V7.78581C21 5.74878 19.5695 4.09743 17.8049 4.09743H9.21122L8.7728 3.20472C8.2054 2.0494 7.14377 1.33545 5.99332 1.33545H4.19511C2.4305 1.33545 1 2.9868 1 5.02383V20.6471C1 22.6841 2.4305 24.3354 4.19511 24.3354H18.968" stroke="#3D3D3D" stroke-width="2" stroke-miterlimit="10" stroke-linecap="round" stroke-linejoin="round"/>
<path d="M16.7446 13.8053C16.3775 13.2827 15.4543 12.8943 14.2478 13.2574C13.14 13.5908 12.6435 15.3618 14.0885 16.0425C14.3153 16.1493 14.8962 16.3773 15.7729 16.6869C17.7348 17.3797 17.7993 19.9539 15.4708 20.157C14.6949 20.2247 13.5885 20.0164 12.9998 19.2862" stroke="#3D3D3D" stroke-width="1.7" stroke-miterlimit="10" stroke-linecap="round" stroke-linejoin="round"/>
<path d="M15.1157 20.1694L15.1157 21.5802" stroke="#3D3D3D" stroke-width="1.7" stroke-miterlimit="10" stroke-linecap="round" stroke-linejoin="round"/>
<path d="M15.0908 12L15.0942 12.981" stroke="#3D3D3D" stroke-width="1.7" stroke-miterlimit="10" stroke-linecap="round" stroke-linejoin="round"/>
<path d="M24 14.6833V12.9613C24 10.9588 22.562 9.33545 20.7882 9.33545H9.21184C7.43799 9.33545 6 10.9588 6 12.9613V20.7096C6 22.7121 7.43799 24.3354 9.21184 24.3354H20.7881C22.557 24.3354 23.9919 22.7211 23.9999 20.7263" stroke="#3D3D3D" stroke-width="2" stroke-miterlimit="10" stroke-linecap="round" stroke-linejoin="round"/>
</svg>
