<svg width="34" height="30" viewBox="0 0 34 30" fill="none" xmlns="http://www.w3.org/2000/svg">
<path d="M17.34 17.5998C18.7759 17.5998 19.94 16.4358 19.94 14.9999C19.94 13.5639 18.7759 12.3999 17.34 12.3999C15.904 12.3999 14.74 13.5639 14.74 14.9999C14.74 16.4358 15.904 17.5998 17.34 17.5998Z" stroke="#E38600" stroke-width="2.4" stroke-miterlimit="10" stroke-linecap="round" stroke-linejoin="round"/>
<path d="M9.53979 22.8H12.1398C13.5757 22.8 14.7398 23.9641 14.7398 25.4V28" stroke="#E38600" stroke-width="2.4" stroke-miterlimit="10" stroke-linecap="round" stroke-linejoin="round"/>
<path d="M19.9399 28V25.4C19.9399 23.9641 21.104 22.8 22.5399 22.8H25.1399" stroke="#E38600" stroke-width="2.4" stroke-miterlimit="10" stroke-linecap="round" stroke-linejoin="round"/>
<path d="M4.59999 12.3998C3.16408 12.3998 2 11.2358 2 9.79988V4.59996C2 3.16407 3.16408 2 4.59999 2H30.0798C31.5158 2 32.6798 3.16407 32.6798 4.59996V9.79988C32.6798 11.2358 31.5158 12.3998 30.0798 12.3998" stroke="#183672" stroke-width="2.4" stroke-miterlimit="10" stroke-linecap="round" stroke-linejoin="round"/>
<path d="M25.1397 7.19995V25.3997C25.1397 26.8356 23.9756 27.9996 22.5397 27.9996H12.1398C10.7039 27.9996 9.53979 26.8356 9.53979 25.3997V7.19995" stroke="#E38600" stroke-width="2.4" stroke-miterlimit="10" stroke-linecap="round" stroke-linejoin="round"/>
<path d="M6.93994 7.2002H27.7398" stroke="#183672" stroke-width="2.4" stroke-miterlimit="10" stroke-linecap="round" stroke-linejoin="round"/>
</svg>
