<svg width="33" height="29" viewBox="0 0 33 29" fill="none" xmlns="http://www.w3.org/2000/svg">
<path d="M20.7396 2.70591C20.4272 3.37971 19.6921 3.61247 18.9326 3.2817C16.7642 2.32001 14.5958 2.31388 12.4274 3.27557C11.6433 3.6186 10.9021 3.38583 10.5959 2.68753C10.2957 2.00761 10.6081 1.29706 11.3616 0.947914C14.0996 -0.320048 17.2603 -0.313922 19.9984 0.95404C20.7518 1.30319 21.052 2.03211 20.7396 2.70591Z" fill="#183672"/>
<path d="M27.257 16.3413C26.5833 18.8282 25.1744 20.7883 23.0244 22.2094C22.8039 22.3564 22.5282 22.4299 22.2832 22.5341C21.7258 22.485 21.2541 22.142 21.0826 21.6397C20.905 21.1068 21.1071 20.58 21.5604 20.2125C22.1913 19.698 22.8345 19.1957 23.3858 18.6015C24.1637 17.7624 24.617 16.7272 24.9049 15.6185C25.0641 15.012 25.6032 14.6261 26.179 14.669C26.7793 14.7058 27.257 15.1774 27.3183 15.7716C27.3306 15.9676 27.3122 16.1575 27.257 16.3413Z" fill="#183672"/>
<path d="M10.3694 21.6455C10.2163 22.1539 9.73848 22.5092 9.17494 22.5643C8.94217 22.4785 8.67878 22.4295 8.47664 22.2948C6.24087 20.8553 4.77689 18.8401 4.10309 16.2674C3.91933 15.5568 4.31136 14.8892 4.99128 14.7115C5.65282 14.54 6.3205 14.932 6.50426 15.6242C7.03104 17.6027 8.152 19.1341 9.86711 20.2366C10.3449 20.549 10.5287 21.1126 10.3694 21.6455Z" fill="#183672"/>
<path d="M18.6199 28.1798C18.5299 28.1798 18.4399 28.1798 18.3499 28.1698H13.7899C13.6999 28.1698 13.6099 28.1798 13.5199 28.1798C12.2399 28.1798 11.1699 27.2198 11.0199 25.9598C10.9999 25.7798 10.9999 25.5998 11.0199 25.4298C10.9699 24.4598 11.2899 23.5298 11.9299 22.7898C12.5799 22.0498 13.4799 21.5998 14.4699 21.5298C14.5499 21.5298 14.6399 21.5298 14.7199 21.5298C14.7999 21.5298 14.8799 21.5298 14.9699 21.5298H17.2499C17.2499 21.5298 17.3799 21.5298 17.4599 21.5298C19.3999 21.5298 21.0199 23.0498 21.1499 24.9898C21.1499 25.1398 21.1599 25.2898 21.1499 25.4398C21.2099 26.0898 21.0199 26.7298 20.6099 27.2498C20.1899 27.7798 19.5899 28.1098 18.9199 28.1798C18.8299 28.1898 18.7299 28.1998 18.6399 28.1998L18.6199 28.1798ZM14.7299 23.5398C13.8399 23.5398 13.0899 24.2298 13.0199 25.1198C13.0199 25.2098 13.0199 25.2998 13.0199 25.3898C13.0199 26.0198 13.1499 26.1498 13.7499 26.1498H18.3699C18.9699 26.1498 19.0999 26.0198 19.0999 25.4398C19.1799 24.4498 18.4699 23.6198 17.5299 23.5498C17.4799 23.5498 17.4399 23.5498 17.3899 23.5498C17.3399 23.5498 17.2999 23.5498 17.2499 23.5498H14.8999C14.8099 23.5498 14.7699 23.5498 14.7199 23.5498L14.7299 23.5398Z" fill="#183672"/>
<path d="M16.0699 20.93C15.2799 20.93 14.5299 20.62 13.9699 20.06C13.4099 19.5 13.0999 18.76 13.0999 17.96C13.0999 16.33 14.4299 15 16.0599 15C17.6899 15 19.0199 16.33 19.0199 17.96C19.0199 19.59 17.6899 20.92 16.0599 20.92L16.0699 20.93ZM16.0699 17.02C15.8199 17.02 15.5799 17.12 15.3999 17.3C15.2199 17.48 15.1199 17.72 15.1199 17.97C15.1199 18.49 15.5399 18.91 16.0599 18.91C16.5799 18.91 17.0099 18.49 17.0099 17.97C17.0099 17.45 16.5799 17.03 16.0599 17.02H16.0699Z" fill="#183672"/>
<path d="M7.61988 13.1798C7.52988 13.1798 7.43988 13.1798 7.34988 13.1698H2.78988C2.69988 13.1698 2.60988 13.1798 2.51988 13.1798C1.23988 13.1798 0.169883 12.2198 0.0198828 10.9598C-0.000117187 10.7798 -0.000117187 10.5998 0.0198828 10.4298C-0.0301172 9.45979 0.289883 8.52978 0.929883 7.78978C1.57988 7.04978 2.47988 6.59979 3.46988 6.52979C3.54988 6.52979 3.63988 6.52979 3.71988 6.52979C3.79988 6.52979 3.87988 6.52979 3.96988 6.52979H6.24988C6.24988 6.52979 6.37988 6.52979 6.45988 6.52979C8.39988 6.52979 10.0199 8.04978 10.1499 9.98978C10.1499 10.1398 10.1599 10.2898 10.1499 10.4398C10.2099 11.0898 10.0199 11.7298 9.60988 12.2498C9.18988 12.7798 8.58988 13.1098 7.91988 13.1798C7.82988 13.1898 7.72988 13.1998 7.63988 13.1998L7.61988 13.1798ZM3.72988 8.53978C2.83988 8.53978 2.08988 9.22978 2.01988 10.1198C2.01988 10.2098 2.01988 10.2998 2.01988 10.3898C2.01988 11.0198 2.14988 11.1498 2.74988 11.1498H7.36988C7.96988 11.1498 8.09988 11.0198 8.09988 10.4398C8.17988 9.44978 7.46988 8.61979 6.52988 8.54979C6.47988 8.54979 6.43988 8.54979 6.38988 8.54979C6.33988 8.54979 6.29988 8.54979 6.24988 8.54979H3.89988C3.80988 8.54979 3.76988 8.54979 3.71988 8.54979L3.72988 8.53978Z" fill="#183672"/>
<path d="M5.06985 5.93C4.27985 5.93 3.52985 5.62 2.96985 5.06C2.40985 4.5 2.09985 3.76 2.09985 2.96C2.09985 1.33 3.42985 0 5.05985 0C6.68985 0 8.01985 1.33 8.01985 2.96C8.01985 4.59 6.68985 5.92 5.05985 5.92L5.06985 5.93ZM5.06985 2.02C4.81985 2.02 4.57985 2.12 4.39985 2.3C4.21985 2.48 4.11985 2.72 4.11985 2.97C4.11985 3.49 4.53985 3.91 5.05985 3.91C5.57985 3.91 6.00985 3.49 6.00985 2.97C6.00985 2.45 5.57985 2.03 5.05985 2.02H5.06985Z" fill="#183672"/>
<path d="M29.6199 13.1798C29.5299 13.1798 29.4399 13.1798 29.3499 13.1698H24.7899C24.6999 13.1698 24.6099 13.1798 24.5199 13.1798C23.2399 13.1798 22.1699 12.2198 22.0199 10.9598C21.9999 10.7798 21.9999 10.5998 22.0199 10.4298C21.9699 9.45979 22.2899 8.52978 22.9299 7.78978C23.5799 7.04978 24.4799 6.59979 25.4699 6.52979C25.5499 6.52979 25.6399 6.52979 25.7199 6.52979C25.7999 6.52979 25.8799 6.52979 25.9699 6.52979H28.2499C28.2499 6.52979 28.3799 6.52979 28.4599 6.52979C30.3999 6.52979 32.0199 8.04978 32.1499 9.98978C32.1499 10.1398 32.1599 10.2898 32.1499 10.4398C32.2099 11.0898 32.0199 11.7298 31.6099 12.2498C31.1899 12.7798 30.5899 13.1098 29.9199 13.1798C29.8299 13.1898 29.7299 13.1998 29.6399 13.1998L29.6199 13.1798ZM25.7299 8.53978C24.8399 8.53978 24.0899 9.22978 24.0199 10.1198C24.0199 10.2098 24.0199 10.2998 24.0199 10.3898C24.0199 11.0198 24.1499 11.1498 24.7499 11.1498H29.3699C29.9699 11.1498 30.0999 11.0198 30.0999 10.4398C30.1799 9.44978 29.4699 8.61979 28.5299 8.54979C28.4799 8.54979 28.4399 8.54979 28.3899 8.54979C28.3399 8.54979 28.2999 8.54979 28.2499 8.54979H25.8999C25.8099 8.54979 25.7699 8.54979 25.7199 8.54979L25.7299 8.53978Z" fill="#183672"/>
<path d="M27.0701 5.93C26.2801 5.93 25.5301 5.62 24.9701 5.06C24.4101 4.5 24.1001 3.76 24.1001 2.96C24.1001 1.33 25.4301 0 27.0601 0C28.6901 0 30.0201 1.33 30.0201 2.96C30.0201 4.59 28.6901 5.92 27.0601 5.92L27.0701 5.93ZM27.0701 2.02C26.8201 2.02 26.5801 2.12 26.4001 2.3C26.2201 2.48 26.1201 2.72 26.1201 2.97C26.1201 3.49 26.5401 3.91 27.0601 3.91C27.5801 3.91 28.0101 3.49 28.0101 2.97C28.0101 2.45 27.5801 2.03 27.0601 2.02H27.0701Z" fill="#183672"/>
</svg>
