<svg width="24" height="24" viewBox="0 0 24 24" fill="none" xmlns="http://www.w3.org/2000/svg">
<path fill-rule="evenodd" clip-rule="evenodd" d="M10.9473 17.4223C9.66604 17.4223 8.41352 17.0424 7.34815 16.3305C6.28279 15.6186 5.45244 14.6069 4.96211 13.4231C4.47177 12.2393 4.34348 10.9367 4.59345 9.68006C4.84342 8.42338 5.46042 7.26904 6.36644 6.36302C7.27246 5.45701 8.4268 4.84 9.68348 4.59003C10.9402 4.34006 12.2427 4.46836 13.4265 4.95869C14.6103 5.44902 15.6221 6.27937 16.3339 7.34473C17.0458 8.4101 17.4257 9.66263 17.4257 10.9439C17.4257 11.1513 17.5081 11.3502 17.6547 11.4968C17.8013 11.6434 18.0002 11.7258 18.2076 11.7258C18.4149 11.7258 18.6138 11.6434 18.7604 11.4968C18.907 11.3502 18.9894 11.1513 18.9894 10.9439C18.9894 9.35336 18.5178 7.7985 17.6341 6.47599C16.7504 5.15348 15.4944 4.12271 14.0249 3.51402C12.5554 2.90534 10.9384 2.74608 9.37842 3.05639C7.81841 3.36669 6.38545 4.13262 5.26074 5.25733C4.13604 6.38203 3.37011 7.81499 3.0598 9.375C2.7495 10.935 2.90876 12.552 3.51744 14.0215C4.12613 15.491 5.1569 16.747 6.47941 17.6307C7.80192 18.5143 9.35677 18.986 10.9473 18.986C11.1547 18.986 11.3536 18.9036 11.5002 18.757C11.6468 18.6104 11.7292 18.4115 11.7292 18.2041C11.7292 17.9968 11.6468 17.7979 11.5002 17.6513C11.3536 17.5047 11.1547 17.4223 10.9473 17.4223Z" fill="#3D3D3D"/>
<path fill-rule="evenodd" clip-rule="evenodd" d="M10.9475 20.3262C9.40281 20.3265 7.88198 19.9453 6.52 19.2166C5.15801 18.488 3.99701 17.4343 3.14006 16.1491C2.28311 14.864 1.75672 13.3871 1.60763 11.8496C1.45854 10.3122 1.69135 8.76171 2.2854 7.33585C2.32493 7.24108 2.34541 7.13945 2.34566 7.03677C2.34592 6.93409 2.32595 6.83237 2.28689 6.7374C2.24783 6.64244 2.19045 6.5561 2.11802 6.48332C2.04559 6.41053 1.95954 6.35272 1.86477 6.31319C1.77 6.27366 1.66838 6.25319 1.5657 6.25293C1.46302 6.25268 1.36129 6.27265 1.26633 6.31171C1.17137 6.35077 1.08503 6.40815 1.01224 6.48058C0.939453 6.553 0.881645 6.63906 0.842116 6.73383C0.148929 8.39733 -0.122799 10.2063 0.0510557 12C0.22491 13.7938 0.838969 15.5168 1.83872 17.0163C2.83846 18.5157 4.19296 19.7451 5.78197 20.5953C7.37097 21.4455 9.14532 21.8902 10.9475 21.8899C11.1548 21.8899 11.3537 21.8075 11.5003 21.6609C11.6469 21.5143 11.7293 21.3154 11.7293 21.1081C11.7293 20.9007 11.6469 20.7018 11.5003 20.5552C11.3537 20.4086 11.1548 20.3262 10.9475 20.3262Z" fill="#3D3D3D"/>
<path fill-rule="evenodd" clip-rule="evenodd" d="M3.54184 5.1857C4.74208 3.64263 6.39435 2.51302 8.26782 1.95467C10.1413 1.39633 12.1424 1.43714 13.9915 2.0714C15.8407 2.70567 17.4455 3.90171 18.5818 5.49243C19.7182 7.08315 20.3292 8.9891 20.3296 10.944C20.3296 11.1514 20.412 11.3502 20.5586 11.4968C20.7053 11.6435 20.9041 11.7258 21.1115 11.7258C21.3188 11.7258 21.5177 11.6435 21.6643 11.4968C21.811 11.3502 21.8933 11.1514 21.8933 10.944C21.8929 8.66331 21.1802 6.4397 19.8546 4.58381C18.529 2.72793 16.6568 1.33246 14.4995 0.592356C12.3422 -0.147745 10.0077 -0.19551 7.82194 0.455733C5.63621 1.10698 3.70849 2.4247 2.30809 4.22481C2.24499 4.30582 2.19848 4.39846 2.17119 4.49745C2.1439 4.59644 2.13637 4.69983 2.14904 4.80173C2.16171 4.90362 2.19432 5.00203 2.24502 5.09132C2.29572 5.18061 2.36351 5.25904 2.44452 5.32213C2.52553 5.38522 2.61817 5.43174 2.71716 5.45903C2.81615 5.48632 2.91954 5.49385 3.02144 5.48118C3.12333 5.46851 3.22173 5.43589 3.31103 5.3852C3.40032 5.3345 3.47875 5.26671 3.54184 5.1857Z" fill="#3D3D3D"/>
<path fill-rule="evenodd" clip-rule="evenodd" d="M10.9474 10.1615C10.6645 10.1877 10.3826 10.1013 10.163 9.92095C9.94346 9.7406 9.80389 9.48092 9.77463 9.19829C9.8037 8.91551 9.94319 8.65564 10.1628 8.47513C10.3824 8.29462 10.6643 8.20806 10.9474 8.23427C11.2305 8.20806 11.5124 8.29462 11.732 8.47513C11.9516 8.65564 12.0911 8.91551 12.1202 9.19829C12.1202 9.40565 12.2025 9.60451 12.3492 9.75114C12.4958 9.89776 12.6947 9.98013 12.902 9.98013C13.1094 9.98013 13.3082 9.89776 13.4549 9.75114C13.6015 9.60451 13.6839 9.40565 13.6839 9.19829C13.6679 8.63614 13.4681 8.09472 13.1151 7.65697C12.7621 7.21921 12.2753 6.90925 11.7292 6.77457V6.58849C11.7292 6.38113 11.6469 6.18226 11.5002 6.03564C11.3536 5.88901 11.1548 5.80664 10.9474 5.80664C10.74 5.80664 10.5412 5.88901 10.3946 6.03564C10.2479 6.18226 10.1656 6.38113 10.1656 6.58849V6.77535C9.61955 6.91003 9.13274 7.21999 8.77971 7.65775C8.42668 8.09551 8.22689 8.63692 8.21094 9.19907C8.24062 9.8963 8.54514 10.5534 9.05791 11.0268C9.57069 11.5002 10.25 11.7513 10.9474 11.7252C11.2305 11.699 11.5124 11.7856 11.732 11.9661C11.9516 12.1466 12.0911 12.4065 12.1202 12.6892C12.0909 12.9719 11.9513 13.2315 11.7318 13.4119C11.5122 13.5922 11.2303 13.6787 10.9474 13.6525C10.6645 13.6787 10.3826 13.5922 10.163 13.4119C9.94346 13.2315 9.80389 12.9719 9.77463 12.6892C9.77463 12.4819 9.69226 12.283 9.54563 12.1364C9.39901 11.9898 9.20014 11.9074 8.99278 11.9074C8.78543 11.9074 8.58656 11.9898 8.43994 12.1364C8.29331 12.283 8.21094 12.4819 8.21094 12.6892C8.22663 13.2515 8.42633 13.793 8.7794 14.2308C9.13247 14.6686 9.61942 14.9785 10.1656 15.113V15.3014C10.1656 15.5087 10.2479 15.7076 10.3946 15.8542C10.5412 16.0009 10.74 16.0832 10.9474 16.0832C11.1548 16.0832 11.3536 16.0009 11.5002 15.8542C11.6469 15.7076 11.7292 15.5087 11.7292 15.3014V15.113C12.2754 14.9785 12.7623 14.6686 13.1154 14.2308C13.4685 13.793 13.6682 13.2515 13.6839 12.6892C13.6546 11.9917 13.3502 11.3342 12.8374 10.8605C12.3246 10.3868 11.645 10.1355 10.9474 10.1615Z" fill="#3D3D3D"/>
<path fill-rule="evenodd" clip-rule="evenodd" d="M18.3828 18.6709C19.9182 18.7469 21.4362 18.3179 22.7048 17.4497C22.9376 17.2817 23.1272 17.0608 23.258 16.8051C23.3888 16.5495 23.4569 16.2665 23.4569 15.9794C23.4569 15.6923 23.3888 15.4093 23.258 15.1537C23.1272 14.8981 22.9376 14.6772 22.7048 14.5091C21.4361 13.6412 19.9181 13.2125 18.3828 13.2887C16.8474 13.2125 15.3294 13.6412 14.0607 14.5091C13.8279 14.6772 13.6383 14.8981 13.5075 15.1537C13.3768 15.4093 13.3086 15.6923 13.3086 15.9794C13.3086 16.2665 13.3768 16.5495 13.5075 16.8051C13.6383 17.0608 13.8279 17.2817 14.0607 17.4497C15.3293 18.3179 16.8474 18.7469 18.3828 18.6709ZM14.9802 15.7914C15.0815 15.6856 15.1973 15.5948 15.3242 15.5216C16.2699 15.0412 17.3229 14.8111 18.3828 14.8532C19.4427 14.8111 20.4957 15.0412 21.4413 15.5216C21.5682 15.5948 21.6841 15.6856 21.7854 15.7914C21.8183 15.8107 21.8456 15.8383 21.8645 15.8714C21.8835 15.9045 21.8935 15.942 21.8935 15.9802C21.8935 16.0184 21.8835 16.0559 21.8645 16.089C21.8456 16.1221 21.8183 16.1497 21.7854 16.169C21.6839 16.2746 21.5681 16.3654 21.4413 16.4387C20.4957 16.9192 19.4427 17.1493 18.3828 17.1072C17.3229 17.1493 16.2699 16.9192 15.3242 16.4387C15.1974 16.3654 15.0816 16.2746 14.9802 16.169C14.9473 16.1497 14.92 16.1221 14.901 16.089C14.882 16.0559 14.872 16.0184 14.872 15.9802C14.872 15.942 14.882 15.9045 14.901 15.8714C14.92 15.8383 14.9473 15.8107 14.9802 15.7914Z" fill="#3D3D3D"/>
<path fill-rule="evenodd" clip-rule="evenodd" d="M21.7777 18.5749C21.5529 18.8132 21.2732 18.9931 20.9631 19.0987C20.1383 19.4063 19.263 19.5559 18.383 19.5397C17.5029 19.5559 16.6276 19.4064 15.8029 19.0987C15.4927 18.9931 15.2131 18.8132 14.9882 18.5749C14.859 18.4123 14.6705 18.3077 14.4642 18.2841C14.2579 18.2605 14.0507 18.3198 13.8881 18.449C13.7256 18.5782 13.621 18.7667 13.5974 18.973C13.5738 19.1793 13.6331 19.3865 13.7623 19.5491C14.4401 20.3997 16.236 21.1034 18.3814 21.1034C20.5268 21.1034 22.3227 20.3997 23.0005 19.5491C23.0645 19.4687 23.112 19.3766 23.1404 19.2779C23.1687 19.1792 23.1774 19.0759 23.1658 18.9738C23.1542 18.8718 23.1226 18.773 23.0729 18.6832C23.0231 18.5933 22.9562 18.5142 22.8758 18.4502C22.7955 18.3862 22.7033 18.3387 22.6046 18.3104C22.5059 18.282 22.4026 18.2734 22.3006 18.285C22.1985 18.2965 22.0998 18.3281 22.0099 18.3779C21.9201 18.4276 21.8417 18.4946 21.7777 18.5749Z" fill="#3D3D3D"/>
<path fill-rule="evenodd" clip-rule="evenodd" d="M21.7777 20.8015C21.5529 21.0398 21.2732 21.2196 20.9631 21.3253C20.1384 21.6333 19.2631 21.7829 18.383 21.7663C17.5029 21.7829 16.6275 21.6333 15.8029 21.3253C15.4927 21.2196 15.2131 21.0398 14.9882 20.8015C14.859 20.6389 14.6705 20.5343 14.4642 20.5107C14.2579 20.4871 14.0507 20.5464 13.8881 20.6756C13.7256 20.8048 13.621 20.9932 13.5974 21.1995C13.5738 21.4058 13.6331 21.6131 13.7623 21.7756C14.4401 22.6263 16.236 23.33 18.3814 23.33C20.5268 23.33 22.3227 22.6263 23.0005 21.7756C23.1297 21.6134 23.1892 21.4065 23.1658 21.2004C23.1424 20.9943 23.0381 20.8059 22.8758 20.6768C22.7136 20.5476 22.5067 20.4881 22.3006 20.5115C22.0945 20.5349 21.9069 20.6392 21.7777 20.8015Z" fill="#3D3D3D"/>
</svg>
