<svg width="34" height="30" viewBox="0 0 34 30" fill="none" xmlns="http://www.w3.org/2000/svg">
<path d="M16.3494 12.2048L15.4287 16.1618H17.8326L16.6307 18.9786" stroke="#183672" stroke-width="2.2" stroke-miterlimit="10" stroke-linecap="round" stroke-linejoin="round"/>
<path d="M9.85327 18.0828V21.9222" stroke="#183672" stroke-width="2.2" stroke-miterlimit="10" stroke-linecap="round" stroke-linejoin="round"/>
<path d="M11.7589 20.0024H7.94653" stroke="#183672" stroke-width="2.2" stroke-miterlimit="10" stroke-linecap="round" stroke-linejoin="round"/>
<path d="M24.0362 22.6497C25.4878 22.6497 26.6646 21.4645 26.6646 20.0026C26.6646 18.5406 25.4878 17.3555 24.0362 17.3555C22.5845 17.3555 21.4077 18.5406 21.4077 20.0026C21.4077 21.4645 22.5845 22.6497 24.0362 22.6497Z" stroke="#183672" stroke-width="2.2" stroke-miterlimit="10" stroke-linecap="round" stroke-linejoin="round"/>
<path d="M16.4229 11.755V9.09282C16.4229 7.78706 17.4814 6.72855 18.7872 6.72855H20.0546C21.3604 6.72855 22.4189 5.67004 22.4189 4.36428C22.4189 3.05851 21.3604 2 20.0546 2H7.2583" stroke="#183672" stroke-width="2.2" stroke-miterlimit="10" stroke-linecap="round" stroke-linejoin="round"/>
<path d="M31.6077 22.6041C31.8554 21.8829 32.003 21.1153 32.0335 20.3179C32.2076 15.7573 28.5881 12.0049 24.0984 12.0049C24.0845 12.0049 24.0707 12.0049 24.0569 12.005V12.0049H9.98267V12.005C9.96886 12.0049 9.95498 12.0049 9.94117 12.0049C5.45141 12.0049 1.8319 15.7572 2.00603 20.3179C2.16743 24.5457 5.6235 27.9382 9.82426 27.999C11.9209 28.0294 13.8345 27.2413 15.2703 25.9316C16.6408 24.6816 17.3988 24.6816 18.7692 25.9316C20.205 27.2413 22.1186 28.0294 24.2153 27.999C25.3147 27.9831 26.363 27.739 27.3146 27.3115" stroke="#183672" stroke-width="2.2" stroke-miterlimit="10" stroke-linecap="round" stroke-linejoin="round"/>
</svg>
