<svg width="24" height="24" viewBox="0 0 24 24" fill="none" xmlns="http://www.w3.org/2000/svg">
<path d="M21.3559 5.87787C20.9527 5.5703 20.3766 5.64774 20.069 6.0509C19.7617 6.45427 19.8387 7.03046 20.2423 7.33802C21.1372 8.02074 21.6716 9.11602 21.6716 10.2684V17.9944C21.6716 20.0196 20.0237 21.6675 17.9983 21.6675H5.51009C3.48469 21.6675 1.83684 20.0196 1.83684 17.9944V10.2684C1.83684 9.1298 2.37716 8.03824 3.28191 7.34787L9.52634 2.58524C10.838 1.58512 12.67 1.58512 13.9818 2.58546L17.4416 5.22205C17.7192 5.43359 18.0928 5.46946 18.4056 5.31437C18.7187 5.15949 18.9164 4.84056 18.9164 4.49143V1.46568C18.8685 0.248336 17.1283 0.247023 17.0798 1.46568V2.63774L15.0953 1.1253C13.1278 -0.375102 10.3801 -0.375102 8.41269 1.1253L2.16847 5.88749C0.810688 6.92306 0 8.56084 0 10.2684V17.9944C0 21.0324 2.47166 23.5041 5.50988 23.5041H17.9981C21.0363 23.5041 23.508 21.0326 23.508 17.9944V10.2684C23.508 8.54705 22.7036 6.90534 21.3559 5.87787Z" fill="#004BE0"/>
<path d="M8.30015 8.91672C7.49012 8.91672 6.83081 9.57582 6.83081 10.3858V17.2935C6.83081 18.1036 7.49012 18.7627 8.30015 18.7627H15.2078C16.0179 18.7627 16.677 18.1036 16.677 17.2935V10.3856C16.677 9.5756 16.0179 8.9165 15.2078 8.9165H8.30015V8.91672ZM14.8403 16.926H8.66765V10.7531H14.8403V16.926Z" fill="#004BE0"/>
</svg>
