<svg width="30" height="30" viewBox="0 0 30 30" fill="none" xmlns="http://www.w3.org/2000/svg">
<path fill-rule="evenodd" clip-rule="evenodd" d="M0 11.2488C0 7.80842 2.80965 4.99878 6.25 4.99878H23.75C27.1904 4.99878 30 7.80842 30 11.2488V23.7488C30 27.1891 27.1904 29.9988 23.75 29.9988H15C14.3096 29.9988 13.75 29.4391 13.75 28.7488C13.75 28.0584 14.3096 27.4988 15 27.4988H23.75C25.8096 27.4988 27.5 25.8084 27.5 23.7488V11.2488C27.5 9.18913 25.8096 7.49878 23.75 7.49878H6.25C4.19035 7.49878 2.5 9.18913 2.5 11.2488V17.4988C2.5 18.1891 1.94035 18.7488 1.25 18.7488C0.559644 18.7488 0 18.1891 0 17.4988V11.2488Z" fill="#183672"/>
<path fill-rule="evenodd" clip-rule="evenodd" d="M20.0005 17.5012C20.0005 15.4358 21.6851 13.7512 23.7505 13.7512H28.7505C29.4409 13.7512 30.0005 14.3108 30.0005 15.0012V20.0012C30.0005 20.6916 29.4409 21.2512 28.7505 21.2512H23.7505C21.6851 21.2512 20.0005 19.5666 20.0005 17.5012ZM23.7505 16.2512C23.0659 16.2512 22.5005 16.8166 22.5005 17.5012C22.5005 18.1858 23.0659 18.7512 23.7505 18.7512H27.5005V16.2512H23.7505Z" fill="#183672"/>
<path fill-rule="evenodd" clip-rule="evenodd" d="M21.4077 2.50585C21.4206 2.50438 21.4416 2.50267 21.4761 2.50159C21.5159 2.50035 21.5589 2.50025 21.6246 2.50025C22.0592 2.50025 22.4996 2.9406 22.4996 3.37525V6.25025C22.4996 6.9406 23.0592 7.50025 23.7496 7.50025C24.44 7.50025 24.9996 6.9406 24.9996 6.25025V3.37525C24.9996 1.55989 23.44 0.000250134 21.6246 0.000250134C21.6127 0.000250134 21.5999 0.000196046 21.5861 0.000138221C21.3591 -0.000816791 20.8864 -0.00280669 20.3932 0.220254L7.07155 5.07583C6.42294 5.31224 6.08877 6.02969 6.32519 6.6783C6.5616 7.32693 7.27906 7.66108 7.92767 7.42467L21.3026 2.54967C21.3384 2.53667 21.3734 2.52204 21.4077 2.50585Z" fill="#183672"/>
<path fill-rule="evenodd" clip-rule="evenodd" d="M13.3839 20.3649C13.872 20.853 13.872 21.6445 13.3839 22.1326L5.88389 29.6326C5.39572 30.1207 4.60427 30.1207 4.11611 29.6326L0.366116 25.8826C-0.122039 25.3945 -0.122039 24.603 0.366116 24.1149C0.854271 23.6267 1.64573 23.6267 2.13389 24.1149L5 26.981L11.6161 20.3649C12.1043 19.8767 12.8957 19.8767 13.3839 20.3649Z" fill="#FB9706"/>
</svg>
