<svg width="30" height="30" viewBox="0 0 30 30" fill="none" xmlns="http://www.w3.org/2000/svg">
<path d="M23.9782 22.81C21.7981 25.3085 18.6069 26.903 15.049 26.9464C8.46789 27.0263 3.06883 21.8694 2.85975 15.2911C2.6414 8.42733 8.19799 2.78154 15.0299 2.85394C21.6736 2.92402 27.0379 8.42617 26.9458 15.0693C26.9331 15.9919 26.8155 16.8891 26.6053 17.7509C26.5132 18.1291 26.6736 18.5241 27.0014 18.7343C27.0067 18.7378 27.0125 18.7413 27.0177 18.7447C27.5453 19.0847 28.2554 18.8079 28.4042 18.198C28.6805 17.0686 28.8183 15.8853 28.798 14.6679C28.6741 7.10391 22.4584 0.996526 14.8932 1C7.22382 1.00348 0.987278 7.25045 1.00002 14.9239C1.01276 22.463 7.09409 28.655 14.6315 28.798C18.9115 28.8791 22.7665 27.0153 25.3711 24.0326C25.7342 23.6167 25.6508 22.975 25.1915 22.6681C25.1863 22.6646 25.1811 22.6611 25.1759 22.6576C24.7936 22.4022 24.2793 22.4642 23.9776 22.8105L23.9782 22.81Z" fill="#183672" stroke="#183672" stroke-width="0.7"/>
<path d="M22.9021 12.4821L22.8743 12.3976C22.6241 11.6458 21.837 11.0794 21.0447 11.0794H17.6768L16.8712 7.81516C16.658 6.9493 15.7951 6.27051 14.9078 6.27051C14.0205 6.27051 13.1575 6.94756 12.942 7.81111L12.1248 11.0794H8.75519C7.96288 11.0794 7.17636 11.6458 6.92558 12.397L6.89778 12.4798C6.64468 13.2409 6.9447 14.1641 7.59685 14.6291L10.2025 16.4906L9.01872 20.2367C8.77025 21.0232 9.10849 21.9308 9.80523 22.3484C10.4458 22.7312 11.4368 22.6571 12.0287 22.1856L14.9002 19.888L17.7729 22.1862C18.1054 22.4509 18.5618 22.6032 19.0228 22.6032C19.379 22.6032 19.7161 22.5146 19.9941 22.3478C20.6908 21.9314 21.0302 21.0238 20.7812 20.2361L19.5985 16.49L22.203 14.6297C22.8546 14.1641 23.1552 13.2403 22.9027 12.4821H22.9021ZM21.2538 13.3005L18.1656 15.5066C17.8778 15.7122 17.755 16.08 17.8615 16.4171L19.2226 20.7273C19.2423 20.791 19.1977 20.9161 19.1548 20.9456C19.1288 20.9607 18.8403 20.9479 18.7911 20.9091L15.4093 18.2038C15.2605 18.0851 15.0798 18.0254 14.8991 18.0254C14.7184 18.0254 14.5382 18.0851 14.3888 18.2038L11.0082 20.908C10.9561 20.9497 10.667 20.9601 10.6439 20.9462C10.5999 20.9161 10.5547 20.7904 10.575 20.7278L11.9378 16.4165C12.0443 16.0794 11.9215 15.7116 11.6337 15.506L8.54495 13.2994C8.47893 13.2524 8.42101 13.0735 8.44649 12.997L8.47429 12.9142C8.50267 12.8297 8.66484 12.7127 8.75461 12.7127H12.7619C13.1366 12.7127 13.4633 12.4572 13.5542 12.0935L14.5261 8.20669C14.5614 8.06479 14.7647 7.90378 14.9072 7.90378C15.0497 7.90378 15.2495 8.06189 15.2854 8.20611L16.2439 12.0918C16.3343 12.4572 16.6609 12.7132 17.0368 12.7132H21.0441C21.1333 12.7132 21.296 12.8302 21.3238 12.9125L21.3516 12.997C21.3771 13.0746 21.3192 13.253 21.2526 13.3011L21.2538 13.3005Z" fill="#183672" stroke="#183672" stroke-width="0.7"/>
</svg>
