<svg width="24" height="24" viewBox="0 0 24 24" fill="none" xmlns="http://www.w3.org/2000/svg">
<path fill-rule="evenodd" clip-rule="evenodd" d="M3.5 5.83333C3.5 2.61168 6.11168 0 9.33333 0C12.555 0 15.1667 2.61168 15.1667 5.83333C15.1667 9.05499 12.555 11.6667 9.33333 11.6667C6.11168 11.6667 3.5 9.05499 3.5 5.83333ZM9.33333 2.33333C7.40034 2.33333 5.83333 3.90034 5.83333 5.83333C5.83333 7.76633 7.40034 9.33333 9.33333 9.33333C11.2664 9.33333 12.8333 7.76633 12.8333 5.83333C12.8333 3.90034 11.2664 2.33333 9.33333 2.33333Z" fill="#3D3D3D"/>
<path d="M9.33333 15.1666C5.46734 15.1666 2.33333 18.3006 2.33333 22.1666C2.33333 22.8109 1.81099 23.3333 1.16667 23.3333C0.52234 23.3333 0 22.8109 0 22.1666C0 17.0119 4.17867 12.8333 9.33333 12.8333C14.488 12.8333 18.6667 17.0119 18.6667 22.1666C18.6667 22.8109 18.1444 23.3333 17.5 23.3333C16.8557 23.3333 16.3333 22.8109 16.3333 22.1666C16.3333 18.3006 13.1993 15.1666 9.33333 15.1666Z" fill="#3D3D3D"/>
<path d="M19.8334 0C19.1891 0 18.6667 0.52234 18.6667 1.16667C18.6667 1.81099 19.1891 2.33333 19.8334 2.33333H22.1667C22.8111 2.33333 23.3334 1.81099 23.3334 1.16667C23.3334 0.52234 22.8111 0 22.1667 0H19.8334Z" fill="#3D3D3D"/>
<path d="M16.3333 5.83341C16.3333 5.18909 16.8556 4.66675 17.4999 4.66675H22.1666C22.8109 4.66675 23.3333 5.18909 23.3333 5.83341C23.3333 6.47774 22.8109 7.00008 22.1666 7.00008H17.4999C16.8556 7.00008 16.3333 6.47774 16.3333 5.83341Z" fill="#3D3D3D"/>
<path d="M20.9999 9.33325C20.3556 9.33325 19.8333 9.85557 19.8333 10.4999C19.8333 11.1443 20.3556 11.6666 20.9999 11.6666H22.1666C22.8109 11.6666 23.3333 11.1443 23.3333 10.4999C23.3333 9.85557 22.8109 9.33325 22.1666 9.33325H20.9999Z" fill="#3D3D3D"/>
</svg>
