<svg width="35" height="29" viewBox="0 0 35 29" fill="none" xmlns="http://www.w3.org/2000/svg">
<path fill-rule="evenodd" clip-rule="evenodd" d="M0 4.61538C0 2.06638 2.06638 0 4.61538 0H26.5385C29.0875 0 31.1538 2.06638 31.1538 4.61538V13.3508C30.4347 12.9348 29.661 12.6026 28.8462 12.3674V9.07692H2.30769V23.5385C2.30769 24.8129 3.34088 25.8462 4.61538 25.8462H20.6403C20.5984 26.225 20.5769 26.61 20.5769 27C20.5769 27.39 20.5984 27.775 20.6403 28.1538H4.61538C2.06638 28.1538 0 26.0875 0 23.5385V4.61538ZM4.61538 2.30769C3.34088 2.30769 2.30769 3.3409 2.30769 4.61538V6.76923H28.8462V4.61538C28.8462 3.3409 27.8129 2.30769 26.5385 2.30769H4.61538Z" fill="#183672"/>
<path d="M5.76932 20C5.13206 20 4.61548 20.5166 4.61548 21.1538C4.61548 21.7911 5.13206 22.3077 5.76932 22.3077H9.23086C9.86813 22.3077 10.3847 21.7911 10.3847 21.1538C10.3847 20.5166 9.86813 20 9.23086 20H5.76932Z" fill="#183672"/>
<path d="M26.7581 18.875C26.7581 18.3917 27.1418 18 27.6152 18C28.0886 18 28.4724 18.3917 28.4724 18.875V21.9558L29.1409 21.2476C29.4693 20.8996 30.0119 20.8893 30.3528 21.2246C30.6937 21.5599 30.7038 22.1139 30.3753 22.4618L28.2325 24.7321C28.0709 24.9033 27.8481 25 27.6152 25C27.3824 25 27.1596 24.9033 26.998 24.7321L24.8551 22.4618C24.5267 22.1139 24.5368 21.5599 24.8776 21.2246C25.2185 20.8893 25.7611 20.8996 26.0896 21.2476L26.7581 21.9558V18.875Z" fill="#E38600"/>
<path fill-rule="evenodd" clip-rule="evenodd" d="M27.6152 14C31.4812 14 34.6152 17.134 34.6152 21C34.6152 24.866 31.4812 28 27.6152 28C23.7492 28 20.6152 24.866 20.6152 21C20.6152 17.134 23.7492 14 27.6152 14ZM32.7486 21C32.7486 18.165 30.4503 15.8667 27.6152 15.8667C24.7802 15.8667 22.4819 18.165 22.4819 21C22.4819 23.835 24.7802 26.1333 27.6152 26.1333C30.4503 26.1333 32.7486 23.835 32.7486 21Z" fill="#E38600"/>
</svg>
