<svg width="28" height="28" viewBox="0 0 28 28" fill="none" xmlns="http://www.w3.org/2000/svg">
<path d="M15.1829 21.5614C15.1829 20.7883 15.1829 20.0181 15.1829 19.245C15.1829 18.9145 15.0392 18.5639 14.8036 18.3311C14.5794 18.107 14.2116 17.9374 13.8897 17.9518C13.5563 17.9661 13.2086 18.0754 12.9758 18.3311C12.743 18.584 12.5964 18.8944 12.5964 19.245V21.5614C12.5964 21.8919 12.7401 22.2425 12.9758 22.4753C13.2 22.6995 13.5678 22.869 13.8897 22.8546C14.2231 22.8403 14.5708 22.7311 14.8036 22.4753C15.0364 22.2224 15.1829 21.912 15.1829 21.5614Z" fill="#E38600"/>
<path d="M15.1829 8.47664C15.1829 7.72081 15.1829 6.96498 15.1829 6.20914C15.1829 5.87864 15.0392 5.52803 14.8036 5.29524C14.5794 5.07108 14.2116 4.90152 13.8897 4.91589C13.5563 4.93026 13.2086 5.03947 12.9758 5.29524C12.743 5.54815 12.5964 5.85853 12.5964 6.20914V8.47664C12.5964 8.80714 12.7401 9.15776 12.9758 9.39054C13.2 9.61471 13.5678 9.78427 13.8897 9.7699C14.2231 9.75553 14.5708 9.64632 14.8036 9.39054C15.0364 9.13764 15.1829 8.82726 15.1829 8.47664Z" fill="#E38600"/>
<path d="M9.05281 16.7619C9.06143 17.739 9.44941 18.6788 10.1334 19.38C10.8289 20.0899 11.7744 20.475 12.7573 20.5325C13.1136 20.5526 13.4757 20.5382 13.8321 20.5382C14.1741 20.5382 14.5161 20.5411 14.861 20.5382C15.3093 20.5353 15.7777 20.4721 16.2002 20.3141C16.729 20.1186 17.1457 19.8743 17.5797 19.5209C17.9073 19.2536 18.1889 18.9001 18.4045 18.538C18.62 18.1701 18.7953 17.7477 18.8643 17.3252C18.962 16.7332 18.9678 16.1756 18.8241 15.5894C18.6804 15.0031 18.3844 14.503 18.0165 14.0346C17.7176 13.6552 17.3239 13.3334 16.9014 13.1006C16.3583 12.7988 15.8036 12.6523 15.1915 12.5862C14.8092 12.5459 14.4155 12.566 14.0304 12.566C13.6625 12.566 13.2918 12.5689 12.9239 12.566C12.786 12.566 12.6509 12.5574 12.513 12.5373C12.6279 12.5517 12.7429 12.5689 12.8578 12.5833C12.6107 12.5459 12.3722 12.4798 12.1422 12.385C12.2457 12.4281 12.3492 12.4712 12.4498 12.5143C12.2285 12.4195 12.0187 12.2959 11.8261 12.1493C11.9123 12.2154 12.0014 12.2844 12.0876 12.3505C11.9008 12.2039 11.7313 12.0344 11.5847 11.8447C11.6508 11.9309 11.7198 12.02 11.7859 12.1062C11.6508 11.9252 11.5359 11.7326 11.4468 11.5228C11.4899 11.6263 11.533 11.7297 11.5761 11.8303C11.487 11.6177 11.4266 11.3964 11.395 11.1693C11.4094 11.2843 11.4266 11.3992 11.441 11.5142C11.4123 11.2872 11.4123 11.0601 11.4381 10.836C11.4238 10.9509 11.4065 11.0659 11.3922 11.1808C11.4238 10.9394 11.487 10.7066 11.5818 10.4796C11.5387 10.583 11.4956 10.6865 11.4525 10.7871C11.5416 10.5802 11.6566 10.3905 11.7916 10.2094C11.7255 10.2957 11.6566 10.3847 11.5905 10.471C11.737 10.2842 11.9037 10.1175 12.0905 9.97091C12.0043 10.037 11.9152 10.106 11.829 10.1721C12.0187 10.0284 12.2227 9.90768 12.4411 9.81284C12.3377 9.85595 12.2342 9.89906 12.1336 9.94217C12.375 9.84158 12.6251 9.77261 12.8837 9.73812C12.7688 9.75249 12.6538 9.76974 12.5388 9.78411C12.9872 9.7295 13.4527 9.75824 13.9011 9.75824C14.335 9.75824 14.7862 9.72663 15.2202 9.78123C15.1052 9.76686 14.9903 9.74962 14.8753 9.73525C15.1081 9.76974 15.3323 9.83009 15.5507 9.92205C15.4472 9.87894 15.3438 9.83584 15.2432 9.79273C15.453 9.88469 15.6484 9.99965 15.8295 10.1376C15.7432 10.0715 15.6542 10.0025 15.5679 9.93642C15.7346 10.0686 15.8841 10.2181 16.0134 10.3847C15.9473 10.2985 15.8783 10.2094 15.8122 10.1232C15.9415 10.2928 16.0479 10.4738 16.1312 10.6693C16.0881 10.5658 16.045 10.4623 16.0019 10.3618C16.0852 10.5629 16.1398 10.767 16.1686 10.9825C16.1542 10.8676 16.137 10.7526 16.1226 10.6377C16.1341 10.7411 16.1427 10.8446 16.1427 10.948C16.1456 11.2814 16.2864 11.6263 16.5221 11.8619C16.7462 12.0861 17.1141 12.2557 17.436 12.2413C17.7693 12.2269 18.1171 12.1177 18.3499 11.8619C18.5798 11.609 18.7321 11.2958 18.7292 10.948C18.7206 9.97091 18.3326 9.03115 17.6486 8.32991C16.956 7.62294 16.022 7.24358 15.0449 7.17748C14.6856 7.15449 14.3207 7.17173 13.9614 7.17173C13.6137 7.17173 13.2659 7.16886 12.9211 7.17173C11.8376 7.17748 10.7714 7.60282 10.0012 8.37015C9.57299 8.79836 9.28847 9.29267 9.06718 9.84733C8.99533 10.0313 8.9436 10.2209 8.91199 10.4164C8.86888 10.7066 8.8229 10.9998 8.84014 11.2958C8.89187 12.2786 9.27985 13.1983 9.96671 13.9081C10.2627 14.2128 10.622 14.4887 11.0071 14.6755C11.2456 14.7933 11.4927 14.8996 11.7485 14.9744C12.0187 15.0548 12.2974 15.0893 12.5762 15.1209C12.9441 15.164 13.3234 15.141 13.6942 15.141H14.8495C14.9817 15.141 15.111 15.1497 15.2403 15.1669C15.1254 15.1525 15.0104 15.1353 14.8954 15.1209C15.1541 15.1583 15.4041 15.2244 15.6455 15.325C15.5421 15.2819 15.4386 15.2388 15.338 15.1956C15.5564 15.2905 15.7605 15.4112 15.9502 15.5549C15.8639 15.4888 15.7749 15.4198 15.6886 15.3537C15.8754 15.5003 16.0421 15.667 16.1887 15.8538C16.1226 15.7676 16.0536 15.6785 15.9875 15.5922C16.1226 15.7704 16.2347 15.963 16.3266 16.1699C16.2835 16.0664 16.2404 15.963 16.1973 15.8624C16.2922 16.0866 16.3554 16.3193 16.387 16.5636C16.3726 16.4487 16.3554 16.3337 16.341 16.2188C16.3669 16.4458 16.3669 16.6728 16.3381 16.897C16.3525 16.782 16.3698 16.6671 16.3841 16.5521C16.3525 16.7792 16.2922 17.0005 16.2031 17.2131C16.2462 17.1097 16.2893 17.0062 16.3324 16.9056C16.2433 17.1125 16.1312 17.308 15.9933 17.489C16.0594 17.4028 16.1283 17.3137 16.1944 17.2275C16.0479 17.4172 15.8812 17.5839 15.6915 17.7333C15.7777 17.6672 15.8668 17.5982 15.953 17.5321C15.7605 17.6787 15.5536 17.8023 15.3294 17.8971C15.4329 17.854 15.5363 17.8109 15.6369 17.7678C15.407 17.8626 15.1685 17.9287 14.9213 17.9661C15.0363 17.9517 15.1512 17.9345 15.2662 17.9201C14.8207 17.9805 14.3552 17.9488 13.9039 17.9488C13.4585 17.9488 12.9987 17.9805 12.5561 17.9258C12.671 17.9402 12.786 17.9575 12.901 17.9718C12.6682 17.9373 12.444 17.877 12.2256 17.785C12.3291 17.8281 12.4325 17.8712 12.5331 17.9144C12.3348 17.8281 12.1509 17.7218 11.9784 17.5925C12.0647 17.6586 12.1537 17.7276 12.24 17.7937C12.0618 17.6557 11.9037 17.4976 11.7658 17.3223C11.8319 17.4085 11.9008 17.4976 11.9669 17.5839C11.8376 17.4143 11.7313 17.2332 11.6479 17.0378C11.691 17.1413 11.7342 17.2447 11.7773 17.3453C11.6939 17.1442 11.6393 16.9401 11.6106 16.7246C11.6249 16.8395 11.6422 16.9545 11.6566 17.0694C11.6451 16.966 11.6364 16.8625 11.6364 16.759C11.6336 16.4257 11.4927 16.0808 11.2571 15.8451C11.0329 15.621 10.6651 15.4514 10.3432 15.4658C10.0098 15.4802 9.66208 15.5894 9.42929 15.8451C9.19938 16.1009 9.04994 16.4142 9.05281 16.7619Z" fill="#E38600"/>
<path d="M4.89695 7.02263C4.94006 6.96516 4.98317 6.90768 5.02628 6.85307C4.96018 6.93929 4.8912 7.02838 4.8251 7.1146C5.48897 6.25818 6.2563 5.48797 7.10985 4.8241C7.02364 4.8902 6.93455 4.95918 6.84833 5.02528C7.7105 4.36141 8.65601 3.80674 9.659 3.38141C9.55554 3.42452 9.45208 3.46762 9.35149 3.51073C10.3803 3.07965 11.4609 2.78651 12.5674 2.63707C12.4524 2.65144 12.3375 2.66868 12.2225 2.68305C13.3347 2.53648 14.4613 2.53648 15.5735 2.68305C15.4585 2.66868 15.3436 2.65144 15.2286 2.63707C16.3322 2.78651 17.4128 3.07965 18.4388 3.51073C18.3353 3.46762 18.2318 3.42452 18.1312 3.38141C19.1342 3.80387 20.0769 4.35566 20.939 5.01953C20.8528 4.95343 20.7637 4.88445 20.6775 4.81836C21.5311 5.47935 22.3013 6.24956 22.9623 7.1031C22.8962 7.01688 22.8272 6.92779 22.7611 6.84158C23.425 7.70375 23.9768 8.64638 24.3992 9.64937C24.3561 9.54591 24.313 9.44245 24.2699 9.34187C24.701 10.3678 24.9941 11.4484 25.1436 12.552C25.1292 12.4371 25.1119 12.3221 25.0976 12.2071C25.1694 12.7647 25.2068 13.3222 25.2097 13.8855C25.2097 14.216 25.3534 14.5637 25.589 14.7994C25.8132 15.0236 26.181 15.1931 26.5029 15.1787C26.8363 15.1644 27.184 15.0552 27.4168 14.7994C27.6496 14.5465 27.7962 14.2361 27.7962 13.8855C27.7933 11.6582 27.2501 9.46257 26.2328 7.48246C25.7385 6.5197 25.1148 5.62879 24.4136 4.80686C23.721 3.99355 22.9249 3.28944 22.0656 2.65144C21.281 2.06804 20.4246 1.57373 19.5251 1.18575C18.5135 0.751794 17.476 0.404053 16.3868 0.217249C13.9986 -0.190844 11.5127 -0.0385273 9.23079 0.797776C6.96616 1.62546 4.9027 3.00493 3.34505 4.85284C3.10939 5.13448 2.88522 5.42475 2.66393 5.71788C2.47713 5.97079 2.45414 6.42774 2.53461 6.71513C2.61795 7.01401 2.84786 7.34163 3.12951 7.4882C3.42839 7.64627 3.79338 7.72674 4.12675 7.61753C4.23021 7.57442 4.33367 7.53131 4.43425 7.4882C4.62681 7.37037 4.782 7.21806 4.89695 7.02263Z" fill="#183672"/>
<path d="M7.51801 5.2698C6.31098 5.2698 5.10394 5.2698 3.89978 5.2698C3.73022 5.2698 3.55778 5.2698 3.38822 5.2698L4.68148 6.56305C4.68148 5.35601 4.68148 4.14898 4.68148 2.94482C4.68148 2.77526 4.68148 2.60282 4.68148 2.43326C4.68148 2.10276 4.53778 1.75215 4.30212 1.51936C4.07796 1.2952 3.7101 1.12564 3.38822 1.14001C3.05485 1.15438 2.70711 1.26359 2.47433 1.51936C2.24154 1.77227 2.09497 2.08265 2.09497 2.43326V6.0515V6.56305C2.09497 7.26141 2.68699 7.8563 3.38822 7.8563H7.00646H7.51801C7.84851 7.8563 8.19913 7.71261 8.43191 7.47695C8.65608 7.25278 8.82564 6.88493 8.81127 6.56305C8.7969 6.22968 8.68769 5.88194 8.43191 5.64915C8.17901 5.41637 7.86863 5.2698 7.51801 5.2698Z" fill="#183672"/>
<path d="M22.8992 20.7485C22.8561 20.806 22.813 20.8635 22.7699 20.9181C22.836 20.8319 22.905 20.7428 22.9711 20.6566C22.3101 21.513 21.5399 22.2832 20.6863 22.947C20.7725 22.8809 20.8616 22.812 20.9478 22.7459C20.0857 23.4097 19.1402 23.9644 18.1372 24.3897C18.2406 24.3466 18.3441 24.3035 18.4447 24.2604C17.4158 24.6915 16.3352 24.9846 15.2288 25.1341C15.3437 25.1197 15.4587 25.1025 15.5736 25.0881C14.4614 25.2347 13.3349 25.2347 12.2227 25.0881C12.3376 25.1025 12.4526 25.1197 12.5676 25.1341C11.464 24.9846 10.3834 24.6915 9.35741 24.2604C9.46087 24.3035 9.56433 24.3466 9.66492 24.3897C8.66193 23.9673 7.71929 23.4155 6.85712 22.7516C6.94334 22.8177 7.03243 22.8867 7.11864 22.9528C6.2651 22.2918 5.49489 21.5216 4.8339 20.668C4.89999 20.7543 4.96897 20.8434 5.03507 20.9296C4.3712 20.0674 3.81941 19.1248 3.39695 18.1218C3.44006 18.2252 3.48316 18.3287 3.52627 18.4293C3.09519 17.4033 2.80205 16.3227 2.65261 15.2191C2.66698 15.3341 2.68422 15.4491 2.69859 15.564C2.62674 15.0065 2.58938 14.4489 2.58651 13.8857C2.58651 13.5552 2.44281 13.2074 2.20715 12.9718C1.98299 12.7476 1.61513 12.578 1.29325 12.5924C0.959882 12.6068 0.61214 12.716 0.379354 12.9718C0.146569 13.2247 0 13.535 0 13.8857C0.0028739 16.1129 0.54604 18.3086 1.5634 20.2887C2.05771 21.2514 2.68135 22.1424 3.38258 22.9643C4.07519 23.7776 4.87126 24.4817 5.73055 25.1197C6.51513 25.7031 7.37155 26.1974 8.27108 26.5854C9.28556 27.0222 10.3202 27.3671 11.4094 27.5539C13.7976 27.962 16.2835 27.8097 18.5654 26.9734C20.83 26.1457 22.8935 24.7662 24.4511 22.9183C24.6868 22.6367 24.9109 22.3464 25.1322 22.0533C25.319 21.8004 25.342 21.3434 25.2616 21.056C25.1782 20.7571 24.9483 20.4295 24.6667 20.2829C24.3678 20.1249 24.0028 20.0444 23.6694 20.1536C23.566 20.1967 23.4625 20.2398 23.3619 20.2829C23.1694 20.4008 23.0142 20.5531 22.8992 20.7485Z" fill="#183672"/>
<path d="M20.2782 22.5013H23.8965H24.408C23.9769 22.0702 23.5459 21.6391 23.1148 21.208V24.8263V25.3378C23.1148 25.6683 23.2585 26.0189 23.4941 26.2517C23.7183 26.4759 24.0861 26.6455 24.408 26.6311C24.7414 26.6167 25.0891 26.5075 25.3219 26.2517C25.5547 25.9988 25.7013 25.6884 25.7013 25.3378C25.7013 24.1308 25.7013 22.9238 25.7013 21.7196C25.7013 21.55 25.7013 21.3776 25.7013 21.208C25.7013 20.5097 25.1093 19.9148 24.408 19.9148C23.201 19.9148 21.994 19.9148 20.7898 19.9148C20.6202 19.9148 20.4478 19.9148 20.2782 19.9148C19.9477 19.9148 19.5971 20.0585 19.3643 20.2941C19.1402 20.5183 18.9706 20.8862 18.985 21.208C18.9994 21.5414 19.1086 21.8892 19.3643 22.1219C19.6172 22.3547 19.9276 22.5013 20.2782 22.5013Z" fill="#183672"/>
</svg>
