<svg width="35" height="28" viewBox="0 0 35 28" fill="none" xmlns="http://www.w3.org/2000/svg">
<path d="M9.2003 26.4143H3.45853C3.00493 26.4157 2.55551 26.3276 2.13604 26.1549C1.71656 25.9823 1.33527 25.7286 1.01402 25.4084C0.692776 25.0882 0.437892 24.7077 0.263981 24.2887C0.0900688 23.8698 0.00054827 23.4206 0.000550485 22.967V22.0945C-0.0260026 19.6445 0.908977 17.2818 2.6048 15.5135C4.30063 13.7452 6.62214 12.7122 9.07103 12.6362C9.79574 12.6232 10.5193 12.6992 11.2255 12.8624C11.3818 12.887 11.5314 12.9435 11.6649 13.0285C11.7984 13.1134 11.913 13.2249 12.0015 13.356C12.0901 13.4871 12.1507 13.6351 12.1795 13.7906C12.2084 13.9462 12.205 14.1061 12.1694 14.2602C12.1338 14.4144 12.0669 14.5596 11.9727 14.6868C11.8786 14.8139 11.7593 14.9204 11.6223 14.9994C11.4852 15.0785 11.3334 15.1285 11.1761 15.1464C11.0189 15.1642 10.8597 15.1495 10.7085 15.1031C10.1891 14.985 9.65735 14.9308 9.12489 14.9415C7.27894 15.0089 5.53275 15.7964 4.26025 17.1353C2.98774 18.4743 2.29007 20.2583 2.31665 22.1052V22.9778C2.31665 23.2835 2.43809 23.5767 2.65425 23.7929C2.76129 23.8999 2.88836 23.9848 3.0282 24.0427C3.16805 24.1007 3.31794 24.1305 3.46931 24.1305H9.2003C9.3603 24.115 9.52178 24.1331 9.67437 24.1837C9.82695 24.2343 9.96727 24.3162 10.0863 24.4243C10.2053 24.5323 10.3005 24.664 10.3655 24.811C10.4306 24.958 10.4643 25.117 10.4643 25.2778C10.4643 25.4385 10.4306 25.5975 10.3655 25.7445C10.3005 25.8915 10.2053 26.0232 10.0863 26.1312C9.96727 26.2393 9.82695 26.3212 9.67437 26.3718C9.52178 26.4224 9.3603 26.4405 9.2003 26.425V26.4143Z" fill="#183672"/>
<path d="M31.0255 26.4141H25.1976C25.0376 26.4296 24.8761 26.4115 24.7235 26.3609C24.5709 26.3103 24.4306 26.2284 24.3116 26.1203C24.1925 26.0123 24.0974 25.8805 24.0323 25.7336C23.9672 25.5866 23.9336 25.4276 23.9336 25.2668C23.9336 25.1061 23.9672 24.9471 24.0323 24.8001C24.0974 24.6531 24.1925 24.5214 24.3116 24.4133C24.4306 24.3053 24.5709 24.2233 24.7235 24.1727C24.8761 24.1222 25.0376 24.104 25.1976 24.1196H31.0255C31.3312 24.1196 31.6244 23.9981 31.8406 23.782C32.0567 23.5658 32.1782 23.2726 32.1782 22.9669V21.8142C32.179 20.7817 31.9476 19.7621 31.5009 18.8312C31.0543 17.9002 30.404 17.0816 29.5981 16.436C28.7922 15.7905 27.8514 15.3345 26.8454 15.1019C25.8393 14.8693 24.7939 14.8659 23.7864 15.0922C23.6343 15.1403 23.4738 15.1563 23.3152 15.1392C23.1566 15.1221 23.0033 15.0722 22.8649 14.9928C22.7266 14.9134 22.6062 14.8061 22.5115 14.6778C22.4167 14.5494 22.3496 14.4028 22.3145 14.2472C22.2793 14.0916 22.2768 13.9304 22.3072 13.7738C22.3376 13.6172 22.4001 13.4686 22.4909 13.3374C22.5816 13.2062 22.6986 13.0953 22.8345 13.0116C22.9703 12.928 23.1221 12.8735 23.2801 12.8515C24.6236 12.5492 26.018 12.5532 27.3598 12.8631C28.7016 13.1729 29.9565 13.7808 31.0315 14.6416C32.1064 15.5024 32.9739 16.5941 33.5696 17.8357C34.1653 19.0773 34.474 20.4371 34.4727 21.8142V22.9669C34.4727 23.8812 34.1095 24.758 33.4631 25.4044C32.8166 26.0509 31.9398 26.4141 31.0255 26.4141Z" fill="#183672"/>
<path d="M25.2838 11.4835C24.1481 11.4835 23.038 11.1468 22.0938 10.5159C21.1496 9.88495 20.4136 8.98821 19.9791 7.93904C19.5445 6.88987 19.4308 5.73539 19.6523 4.6216C19.8739 3.50781 20.4207 2.48473 21.2237 1.68173C22.0267 0.878726 23.0498 0.331876 24.1636 0.110329C25.2774 -0.111218 26.4319 0.00248792 27.481 0.437068C28.5302 0.871649 29.4269 1.60758 30.0579 2.55181C30.6888 3.49604 31.0255 4.60615 31.0255 5.74176C31.0227 7.2637 30.4168 8.72249 29.3407 9.79866C28.2645 10.8748 26.8057 11.4807 25.2838 11.4835ZM25.2838 2.29455C24.602 2.29455 23.9355 2.49673 23.3686 2.87551C22.8017 3.2543 22.3599 3.79268 22.0989 4.42257C21.838 5.05247 21.7698 5.74559 21.9028 6.41428C22.0358 7.08298 22.3641 7.69721 22.8462 8.17931C23.3283 8.66141 23.9425 8.98973 24.6112 9.12274C25.2799 9.25575 25.9731 9.18748 26.6029 8.92657C27.2328 8.66566 27.7712 8.22382 28.15 7.65693C28.5288 7.09004 28.731 6.42356 28.731 5.74176C28.731 4.82751 28.3678 3.9507 27.7213 3.30422C27.0748 2.65774 26.198 2.29455 25.2838 2.29455Z" fill="#183672"/>
<path d="M9.20026 11.4835C8.06465 11.4835 6.95454 11.1468 6.01031 10.5159C5.06608 9.88495 4.33014 8.98821 3.89556 7.93904C3.46098 6.88987 3.34728 5.73539 3.56882 4.6216C3.79037 3.50781 4.33722 2.48473 5.14022 1.68173C5.94322 0.878726 6.96631 0.331876 8.0801 0.110329C9.19389 -0.111218 10.3484 0.00248792 11.3975 0.437068C12.4467 0.871649 13.3434 1.60758 13.9744 2.55181C14.6053 3.49604 14.942 4.60615 14.942 5.74176C14.9392 7.2637 14.3333 8.72249 13.2572 9.79866C12.181 10.8748 10.7222 11.4807 9.20026 11.4835ZM9.20026 2.29455C8.51847 2.29455 7.85198 2.49673 7.28509 2.87551C6.7182 3.2543 6.27636 3.79268 6.01545 4.42257C5.75454 5.05247 5.68627 5.74559 5.81929 6.41428C5.9523 7.08298 6.28061 7.69721 6.76271 8.17931C7.24481 8.66141 7.85905 8.98973 8.52774 9.12274C9.19644 9.25575 9.88956 9.18748 10.5195 8.92657C11.1493 8.66566 11.6877 8.22382 12.0665 7.65693C12.4453 7.09004 12.6475 6.42356 12.6475 5.74176C12.6475 4.82751 12.2843 3.9507 11.6378 3.30422C10.9913 2.65774 10.1145 2.29455 9.20026 2.29455Z" fill="#183672"/>
<path d="M17.2365 27.5669C15.8729 27.5669 14.5399 27.1626 13.4061 26.405C12.2723 25.6474 11.3887 24.5707 10.8669 23.3109C10.345 22.0511 10.2085 20.6649 10.4745 19.3275C10.7405 17.9901 11.3972 16.7616 12.3614 15.7974C13.3256 14.8332 14.554 14.1766 15.8914 13.9106C17.2288 13.6445 18.6151 13.7811 19.8749 14.3029C21.1346 14.8247 22.2114 15.7084 22.969 16.8422C23.7265 17.9759 24.1309 19.3089 24.1309 20.6725C24.1309 21.5779 23.9526 22.4744 23.6061 23.3109C23.2596 24.1474 22.7518 24.9074 22.1116 25.5476C21.4714 26.1878 20.7113 26.6956 19.8749 27.0421C19.0384 27.3886 18.1419 27.5669 17.2365 27.5669ZM17.2365 16.0834C16.3288 16.0834 15.4416 16.3525 14.6869 16.8568C13.9322 17.3611 13.344 18.0778 12.9967 18.9163C12.6494 19.7549 12.5585 20.6776 12.7355 21.5678C12.9126 22.458 13.3497 23.2757 13.9915 23.9175C14.6333 24.5593 15.451 24.9964 16.3412 25.1734C17.2314 25.3505 18.1541 25.2596 18.9926 24.9123C19.8312 24.5649 20.5479 23.9767 21.0522 23.2221C21.5564 22.4674 21.8256 21.5801 21.8256 20.6725C21.8227 19.4563 21.3383 18.2907 20.4783 17.4307C19.6183 16.5707 18.4527 16.0862 17.2365 16.0834Z" fill="#183672"/>
<path d="M18.9603 19.5308H18.3893V18.9598C18.3616 18.6747 18.2288 18.4101 18.0167 18.2176C17.8046 18.0251 17.5285 17.9185 17.242 17.9185C16.9556 17.9185 16.6794 18.0251 16.4673 18.2176C16.2552 18.4101 16.1224 18.6747 16.0948 18.9598V19.5308H15.513C15.2279 19.5584 14.9634 19.6912 14.7708 19.9033C14.5783 20.1154 14.4717 20.3916 14.4717 20.678C14.4717 20.9645 14.5783 21.2406 14.7708 21.4527C14.9634 21.6648 15.2279 21.7977 15.513 21.8253H16.0948V22.3963C16.1224 22.6814 16.2552 22.9459 16.4673 23.1385C16.6794 23.331 16.9556 23.4376 17.242 23.4376C17.5285 23.4376 17.8046 23.331 18.0167 23.1385C18.2288 22.9459 18.3616 22.6814 18.3893 22.3963V21.8253H18.9603C19.2453 21.7977 19.5099 21.6648 19.7024 21.4527C19.895 21.2406 20.0016 20.9645 20.0016 20.678C20.0016 20.3916 19.895 20.1154 19.7024 19.9033C19.5099 19.6912 19.2453 19.5584 18.9603 19.5308Z" fill="#183672"/>
</svg>
