<svg width="16" height="16" viewBox="0 0 16 16" fill="none" xmlns="http://www.w3.org/2000/svg">
<path d="M8 2.66663C4.36364 2.66663 1.25818 4.92844 0 8.12117C1.25818 11.3139 4.36364 13.5757 8 13.5757C11.6364 13.5757 14.7418 11.3139 16 8.12117C14.7418 4.92844 11.6364 2.66663 8 2.66663ZM8 11.7575C5.99273 11.7575 4.36364 10.1284 4.36364 8.12117C4.36364 6.1139 5.99273 4.48481 8 4.48481C10.0073 4.48481 11.6364 6.1139 11.6364 8.12117C11.6364 10.1284 10.0073 11.7575 8 11.7575ZM8 5.93935C6.79273 5.93935 5.81818 6.9139 5.81818 8.12117C5.81818 9.32844 6.79273 10.303 8 10.303C9.20727 10.303 10.1818 9.32844 10.1818 8.12117C10.1818 6.9139 9.20727 5.93935 8 5.93935Z" fill="#4D4D4D"/>
</svg>
