<svg width="21" height="21" viewBox="0 0 21 21" fill="none" xmlns="http://www.w3.org/2000/svg">
<path d="M20.3689 10.7281C20.3698 10.0466 20.3117 9.3664 20.1955 8.69482H10.6997V12.546H16.1385C16.0272 13.1611 15.7916 13.7475 15.446 14.2697C15.1004 14.792 14.6518 15.2393 14.1274 15.5848V18.0846H17.3733C19.2739 16.3444 20.3689 13.771 20.3689 10.7281Z" fill="#4285F4"/>
<path d="M10.6997 20.5C13.4169 20.5 15.7049 19.6139 17.3733 18.0862L14.1274 15.5864C13.2239 16.1947 12.0604 16.5419 10.6997 16.5419C8.07328 16.5419 5.84408 14.7836 5.04693 12.4143H1.70312V14.9906C2.5412 16.6467 3.82629 18.0389 5.41494 19.0118C7.00358 19.9847 8.83324 20.4999 10.6997 20.5Z" fill="#34A853"/>
<path d="M5.04686 12.414C4.62543 11.1724 4.62543 9.82793 5.04686 8.58639V6.01013H1.70305C0.998032 7.40333 0.630859 8.94096 0.630859 10.5002C0.630859 12.0594 0.998032 13.597 1.70305 14.9902L5.04686 12.414Z" fill="#FBBC04"/>
<path d="M10.6997 4.45879C12.1356 4.43549 13.5231 4.97429 14.5623 5.95872L17.4362 3.10469C15.6139 1.40488 13.1996 0.471659 10.6997 0.500656C8.83324 0.500741 7.00358 1.01598 5.41494 1.98886C3.82629 2.96174 2.5412 4.35397 1.70312 6.0101L5.04693 8.58636C5.84408 6.21704 8.07328 4.45879 10.6997 4.45879Z" fill="#EA4335"/>
</svg>
